<svg xmlns="http://www.w3.org/2000/svg" viewBox="0 0 750 500"><g id="freepik--background-complete--inject-5"><rect x="611.49" y="61.73" width="104.81" height="173.49" style="fill:#e0e0e0"></rect><rect x="608.01" y="61.73" width="104.81" height="173.49" style="fill:#ebebeb"></rect><rect x="612.47" y="65.25" width="95.88" height="166.45" style="fill:#fafafa"></rect><rect x="630.72" y="86.88" width="58.96" height="123.2" style="fill:#ebebeb"></rect><path d="M630.72,166.48c-.13-11.51,10.22-22.74,21.61-24.35,5.44-.76,11.21.31,16.29-1.77,9.06-3.71,11.94-15.76,21.06-19.33l.42,89.05H630.72Z" style="fill:#e0e0e0"></path><rect x="135.47" y="34.35" width="71.88" height="74.92" style="fill:#e0e0e0"></rect><rect x="130.61" y="34.35" width="71.87" height="74.92" style="fill:#fafafa"></rect><path d="M202.5,109.29H130.58v-75H202.5Zm-71.87,0h71.83V34.37H130.63Z" style="fill:#e0e0e0"></path><rect x="140.27" y="44.42" width="52.55" height="54.78" style="fill:#fff"></rect><path d="M140.27,99.56a8.86,8.86,0,0,1-1.3,1.51c-.84.89-2,2.08-3.34,3.39s-2.54,2.46-3.43,3.28a8.89,8.89,0,0,1-1.52,1.27,7.75,7.75,0,0,1,1.29-1.5c.84-.89,2-2.09,3.35-3.4s2.54-2.47,3.44-3.29A8.26,8.26,0,0,1,140.27,99.56Z" style="fill:#e0e0e0"></path><path d="M192.82,99.43a9,9,0,0,1,1.51,1.29c.88.84,2.08,2,3.38,3.34s2.47,2.54,3.29,3.44a8.6,8.6,0,0,1,1.27,1.52,8.46,8.46,0,0,1-1.51-1.29c-.88-.84-2.08-2-3.39-3.35s-2.47-2.54-3.29-3.44A8.68,8.68,0,0,1,192.82,99.43Z" style="fill:#e0e0e0"></path><path d="M192.68,44.56a7.75,7.75,0,0,1,1.29-1.5c.84-.89,2-2.09,3.34-3.39s2.54-2.46,3.44-3.29a7.73,7.73,0,0,1,1.52-1.26,9.8,9.8,0,0,1-1.29,1.5c-.84.89-2,2.09-3.35,3.39s-2.55,2.47-3.44,3.3A8.27,8.27,0,0,1,192.68,44.56Z" style="fill:#e0e0e0"></path><path d="M140.12,44.7a9.07,9.07,0,0,1-1.5-1.3c-.89-.84-2.09-2-3.39-3.34s-2.46-2.54-3.29-3.43a8.48,8.48,0,0,1-1.26-1.52,7.75,7.75,0,0,1,1.5,1.29c.89.84,2.09,2,3.39,3.35s2.47,2.54,3.3,3.44A7.89,7.89,0,0,1,140.12,44.7Z" style="fill:#e0e0e0"></path><path d="M192.68,99.2a1.67,1.67,0,0,1,0-.27c0-.19,0-.44,0-.76,0-.69,0-1.68,0-3,0-2.59,0-6.37,0-11.16,0-9.6-.06-23.27-.11-39.63l.21.2-52.41,0h0l.23-.23c0,20.1,0,38.91,0,54.78l-.2-.2,37.95.1,10.65.05,2.82,0h.05l-2.78,0-10.62.06-38.07.1h-.2v-.2c0-15.87,0-34.68,0-54.78v-.23h.23l52.41,0h.2v.2c0,16.42-.08,30.13-.1,39.76,0,4.77-.05,8.53-.06,11.11,0,1.27,0,2.24,0,2.92,0,.32,0,.56,0,.74S192.68,99.2,192.68,99.2Z" style="fill:#e0e0e0"></path><rect x="157.78" y="63.04" width="17.54" height="17.54" style="fill:#ebebeb"></rect><rect x="42.48" y="88.17" width="69.86" height="101.26" style="fill:#e0e0e0"></rect><rect x="38.98" y="88.17" width="69.86" height="101.26" style="fill:#f5f5f5"></rect><rect x="47.66" y="99.13" width="52.5" height="79.33" style="fill:#fff"></rect><path d="M100.17,178.46s0-.13,0-.38,0-.64,0-1.13c0-1,0-2.45,0-4.35,0-3.8,0-9.34,0-16.34,0-14,0-33.8-.09-57.13l.18.18H47.66l.19-.19c0,29.93,0,57.52,0,79.33l-.16-.15,38.22.08,10.56,0,2.77,0h1s-.31,0-.93,0l-2.74,0-10.53,0-38.31.08h-.15v-.16c0-21.81,0-49.4,0-79.33v-.19h.2l52.5,0h.17v.17c0,23.38-.06,43.23-.08,57.24,0,7,0,12.51-.05,16.31,0,1.87,0,3.32,0,4.31,0,.48,0,.85,0,1.11S100.17,178.46,100.17,178.46Z" style="fill:#e0e0e0"></path><path d="M109,88.17A12.37,12.37,0,0,1,107.8,90c-.81,1.08-2,2.56-3.28,4.15s-2.54,3-3.45,4a12.74,12.74,0,0,1-1.54,1.57A13.09,13.09,0,0,1,100.86,98l3.37-4.08,3.36-4.08A12.44,12.44,0,0,1,109,88.17Z" style="fill:#e0e0e0"></path><path d="M100.44,178.21a64.34,64.34,0,0,0,9.15,11.45" style="fill:#fff"></path><path d="M109.59,189.66a9.72,9.72,0,0,1-1.59-1.45,50.46,50.46,0,0,1-3.46-3.9c-1.27-1.59-2.32-3.1-3-4.22a9.7,9.7,0,0,1-1.06-1.88,15.28,15.28,0,0,1,1.28,1.73c.77,1.08,1.86,2.55,3.12,4.14s2.47,3,3.35,3.95A13.06,13.06,0,0,1,109.59,189.66Z" style="fill:#e0e0e0"></path><path d="M39,189.35l9.15-11.29" style="fill:#fff"></path><path d="M48.12,178.06a67.26,67.26,0,0,1-4.42,5.77A67.6,67.6,0,0,1,39,189.35a71.72,71.72,0,0,1,4.43-5.76C45.93,180.47,48,178,48.12,178.06Z" style="fill:#e0e0e0"></path><path d="M39,88.17a61.23,61.23,0,0,1,4.45,5.31A65.22,65.22,0,0,1,47.57,99a62.3,62.3,0,0,1-4.44-5.31A64.91,64.91,0,0,1,39,88.17Z" style="fill:#e0e0e0"></path><rect x="66.23" y="115.24" width="17.58" height="49.92" style="fill:#e0e0e0"></rect></g><g id="freepik--Device--inject-5"><path d="M196.17,146.74H646.94a6.74,6.74,0,0,1,6.74,6.74V439.85a14.57,14.57,0,0,1-14.57,14.57H203a14.57,14.57,0,0,1-14.57-14.57V154.5a7.75,7.75,0,0,1,7.75-7.75Z" style="fill:#263238"></path><path d="M169,431.66H673a0,0,0,0,1,0,0v13.2a13.72,13.72,0,0,1-13.72,13.72H182.69A13.72,13.72,0,0,1,169,444.86v-13.2A0,0,0,0,1,169,431.66Z" style="fill:#263238"></path><rect x="200.91" y="158.97" width="438.98" height="259.82" style="fill:#f5f5f5"></rect><polygon points="375.19 431.66 381.44 441.61 469.46 441.61 475.27 431.66 375.19 431.66" style="fill:#455a64"></polygon><rect x="188.5" y="431.57" width="465.26" height="1.48" style="fill:#455a64"></rect></g><g id="freepik--Article--inject-5"><path d="M593.31,122.58h20.74V348c0,14.9-9.79,27-21.87,27H568.81V122.58Z" style="fill:#e0e0e0"></path><path d="M593.31,122.58l-1.59,0-4.69,0-18.22.05.1-.1c0,42.56.09,138.83.16,252.4l-.26-.26h21.32c1,0,1.93,0,2.87-.05l1.42-.09,1.39-.27a19.68,19.68,0,0,0,9.76-5.36,26.27,26.27,0,0,0,6-9.33,32,32,0,0,0,2.14-10.82c0-14.83,0-29.28,0-43.27,0-28,0-54.14,0-77.74,0-47.18.09-84.15.12-105.21l.09.09-15.47,0-3.94,0-1.33,0,1.33,0,3.94,0,15.47,0h.1v.1c0,21.06.06,58,.11,105.21,0,23.6,0,49.75,0,77.74q0,21,0,43.28a32.34,32.34,0,0,1-2.18,11,26.74,26.74,0,0,1-6.17,9.51,20.19,20.19,0,0,1-10,5.5l-1.44.27-1.45.1c-1,.09-1.93,0-2.9.05H568.55V375c.07-113.57.13-209.84.15-252.4v-.11h.11l18.22,0,4.69,0Z" style="fill:#263238"></path><path d="M593.31,375H237.56a19.63,19.63,0,0,1-19.62-19.62V57.68H593.31Z" style="fill:#fff"></path><path d="M593.31,375c0-1.84-.09-126.19-.22-317.3l.22.22-371.12,0H218l.26-.26c0,94.6,0,184.67,0,266.55v30.32a20.81,20.81,0,0,0,1.11,7.24,19.43,19.43,0,0,0,16.19,12.84c2.37.2,4.81.09,7.21.12h49.15l101.19.05,200.28.17-200.15.17-101.27,0H242.7c-2.42,0-4.81.08-7.27-.12A19.84,19.84,0,0,1,218.86,362a21.15,21.15,0,0,1-1.15-7.4V324.23c0-81.88,0-172,0-266.55v-.26h4.51l371.12,0h.22v.22C593.4,248.79,593.31,373.14,593.31,375Z" style="fill:#263238"></path><path d="M593.31,86.39c0,.14-84,.26-187.67.26s-187.7-.12-187.7-.26,84-.26,187.7-.26S593.31,86.24,593.31,86.39Z" style="fill:#263238"></path><path d="M475,72.22c0,.14-29.81.26-66.56.26s-66.56-.12-66.56-.26,29.8-.26,66.56-.26S475,72.07,475,72.22Z" style="fill:#A855A6"></path><circle cx="230.55" cy="71.81" r="3.58" style="fill:#e0e0e0"></circle><circle cx="242.69" cy="71.81" r="3.58" style="fill:#e0e0e0"></circle><circle cx="254.82" cy="71.81" r="3.58" style="fill:#e0e0e0"></circle><path d="M365.85,127.92h-7.42L357,131.34h-3.79l7.12-16H364l7.15,16h-3.88Zm-1.16-2.81L362.15,119l-2.53,6.12Z" style="fill:#455a64"></path><path d="M383,131.34l-3.08-4.45h-3.4v4.45h-3.7v-16h6.92c4.26,0,6.94,2.22,6.94,5.8a5.2,5.2,0,0,1-3.29,5l3.58,5.13Zm-3.47-13h-3V124h3c2.26,0,3.4-1,3.4-2.79S381.78,118.38,379.52,118.38Z" style="fill:#455a64"></path><path d="M392.67,118.38h-5.12v-3h13.93v3h-5.12v13h-3.69Z" style="fill:#455a64"></path><path d="M403.46,115.36h3.7v16h-3.7Z" style="fill:#455a64"></path><path d="M409.94,123.35c0-4.81,3.7-8.26,8.68-8.26a8.24,8.24,0,0,1,6.57,2.83l-2.37,2.19a5.16,5.16,0,0,0-4-1.87,5.12,5.12,0,0,0,0,10.23,5.1,5.1,0,0,0,4-1.9l2.37,2.19a8.22,8.22,0,0,1-6.6,2.86C413.64,131.62,409.94,128.17,409.94,123.35Z" style="fill:#455a64"></path><path d="M427.68,115.36h3.69v13h8v3H427.68Z" style="fill:#455a64"></path><path d="M453.83,128.38v3H441.46v-16h12.08v3h-8.4v3.47h7.42v2.88h-7.42v3.7Z" style="fill:#455a64"></path><path d="M396.29,166.59c0,.15-7.44.26-16.62.26s-16.62-.11-16.62-.26,7.44-.26,16.62-.26S396.29,166.45,396.29,166.59Z" style="fill:#263238"></path><path d="M442.18,166.59c0,.15-8.15.26-18.2.26s-18.2-.11-18.2-.26,8.15-.26,18.2-.26S442.18,166.45,442.18,166.59Z" style="fill:#263238"></path><path d="M440.6,183.37c0,.14-17.29.26-38.61.26s-38.62-.12-38.62-.26,17.29-.26,38.62-.26S440.6,183.22,440.6,183.37Z" style="fill:#263238"></path><path d="M442.18,198.24c0,.15-17.5.26-39.09.26s-39.09-.11-39.09-.26,17.5-.26,39.09-.26S442.18,198.1,442.18,198.24Z" style="fill:#263238"></path><path d="M396,214.39c0,.14-7.09.26-15.82.26s-15.83-.12-15.83-.26,7.08-.26,15.83-.26S396,214.24,396,214.39Z" style="fill:#263238"></path><path d="M437.43,214.07c0,.14-7.79.26-17.4.26s-17.41-.12-17.41-.26,7.79-.26,17.41-.26S437.43,213.93,437.43,214.07Z" style="fill:#263238"></path><path d="M437.43,230.53c0,.14-16.44.26-36.71.26s-36.72-.12-36.72-.26,16.44-.26,36.72-.26S437.43,230.38,437.43,230.53Z" style="fill:#263238"></path><path d="M298.17,261.23c0,.14-6.87.26-15.35.26s-15.35-.12-15.35-.26,6.87-.26,15.35-.26S298.17,261.09,298.17,261.23Z" style="fill:#263238"></path><path d="M344.38,262.18c0,.14-7.94.26-17.72.26s-17.73-.12-17.73-.26,7.94-.26,17.73-.26S344.38,262,344.38,262.18Z" style="fill:#263238"></path><path d="M345.33,277.37c0,.15-17.22.26-38.45.26s-38.46-.11-38.46-.26,17.21-.26,38.46-.26S345.33,277.23,345.33,277.37Z" style="fill:#263238"></path><path d="M350.08,292.88c0,.14-18.57.26-41.46.26s-41.47-.12-41.47-.26,18.56-.26,41.47-.26S350.08,292.74,350.08,292.88Z" style="fill:#263238"></path><path d="M416.23,244.77c0,.14-11.77.26-26.27.26s-26.27-.12-26.27-.26,11.76-.26,26.27-.26S416.23,244.63,416.23,244.77Z" style="fill:#263238"></path><path d="M442.18,244.77a140.55,140.55,0,0,1-17.09,0,140.55,140.55,0,0,1,17.09,0Z" style="fill:#263238"></path><path d="M438.38,261.86c0,.15-16.15.26-36.08.26s-36.08-.11-36.08-.26,16.15-.26,36.08-.26S438.38,261.72,438.38,261.86Z" style="fill:#263238"></path><path d="M399.14,277.69c0,.14-7.94.26-17.73.26s-17.72-.12-17.72-.26,7.93-.26,17.72-.26S399.14,277.54,399.14,277.69Z" style="fill:#263238"></path><path d="M442.81,293.83c0,.14-17.36.26-38.77.26s-38.77-.12-38.77-.26,17.36-.26,38.77-.26S442.81,293.69,442.81,293.83Z" style="fill:#263238"></path><path d="M446,278c0,.15-8.5.26-19,.26s-19-.11-19-.26,8.5-.26,19-.26S446,277.86,446,278Z" style="fill:#263238"></path><path d="M539,166.91c0,.14-18.07.26-40.35.26s-40.36-.12-40.36-.26,18.07-.26,40.36-.26S539,166.77,539,166.91Z" style="fill:#263238"></path><path d="M475.1,182.1a125.37,125.37,0,0,1-16.14,0,125.37,125.37,0,0,1,16.14,0Z" style="fill:#263238"></path><path d="M539,182.42c0,.14-12.68.26-28.32.26s-28.33-.12-28.33-.26,12.68-.26,28.33-.26S539,182.28,539,182.42Z" style="fill:#263238"></path><path d="M534.92,197.61c0,.15-16.51.26-36.87.26s-36.88-.11-36.88-.26,16.51-.26,36.88-.26S534.92,197.47,534.92,197.61Z" style="fill:#263238"></path><path d="M537.45,212.8c0,.15-17,.26-38,.26s-38-.11-38-.26,17-.26,38-.26S537.45,212.66,537.45,212.8Z" style="fill:#263238"></path><path d="M496.62,229c0,.14-7.94.26-17.72.26s-17.73-.12-17.73-.26,7.94-.26,17.73-.26S496.62,228.8,496.62,229Z" style="fill:#263238"></path><path d="M537.45,229.26c0,.15-7.09.26-15.83.26s-15.82-.11-15.82-.26,7.08-.26,15.82-.26S537.45,229.12,537.45,229.26Z" style="fill:#263238"></path><path d="M345.33,124.78c0,.15-17.14.26-38.27.26s-38.28-.11-38.28-.26,17.13-.26,38.28-.26S345.33,124.64,345.33,124.78Z" style="fill:#263238"></path><path d="M548.87,124.78c0,.15-18,.26-40.19.26s-40.19-.11-40.19-.26,18-.26,40.19-.26S548.87,124.64,548.87,124.78Z" style="fill:#263238"></path><path d="M546.74,247.48c0,.08-1.24-.62-3.6-1.37a23.29,23.29,0,0,0-10.33-.76,22.33,22.33,0,0,0-6.82,2.19,32,32,0,0,0-6.7,4.82c-2.2,1.94-4.38,4.14-6.9,6.17a23.67,23.67,0,0,1-8.8,4.77,13.53,13.53,0,0,1-5.14.31,16.91,16.91,0,0,1-4.76-1.47,81.85,81.85,0,0,1-8-4.75,25.11,25.11,0,0,0-7.5-3.36,22.51,22.51,0,0,0-7.14-.55,23,23,0,0,0-9.85,3.21c-2.11,1.29-3.11,2.26-3.17,2.2a5,5,0,0,1,.72-.71,16.67,16.67,0,0,1,2.29-1.74,22.43,22.43,0,0,1,17.29-3,25.45,25.45,0,0,1,7.73,3.38,81.68,81.68,0,0,0,7.92,4.66,13.51,13.51,0,0,0,9.4,1.1,23.05,23.05,0,0,0,8.51-4.6c2.48-2,4.67-4.18,6.9-6.12A32.28,32.28,0,0,1,525.7,247a22.83,22.83,0,0,1,17.53-1.14,18.17,18.17,0,0,1,2.65,1.14A4.44,4.44,0,0,1,546.74,247.48Z" style="fill:#A855A6"></path><rect x="475.16" y="264.66" width="9.53" height="25.77" style="fill:#A855A6"></rect><rect x="515.59" y="264.66" width="9.53" height="25.77" style="fill:#A855A6"></rect><rect x="529.06" y="249.53" width="9.53" height="40.9" style="fill:#A855A6"></rect><rect x="462.83" y="282.31" width="9.53" height="8.67" style="fill:#A855A6"></rect><rect x="488.64" y="276.3" width="9.53" height="14.13" style="fill:#A855A6"></rect><rect x="502.11" y="273.05" width="9.53" height="17.37" style="fill:#A855A6"></rect><rect x="268.73" y="166.59" width="80.4" height="77.79" style="fill:#455a64"></rect><g style="opacity:0.30000000000000004"><polygon points="274.96 237.73 297.2 197.7 315.4 223.28 326.45 209.69 342.9 237.73 274.96 237.73"></polygon></g><g style="opacity:0.30000000000000004"><path d="M321.6,185.67c4.72,6.2-2.28,13.2-8.48,8.48C308.41,188,315.41,181,321.6,185.67Z"></path></g><g style="opacity:0.30000000000000004"><path d="M342.9,237.94a2,2,0,0,1,0-.32c0-.23,0-.53,0-.9,0-.83,0-2,0-3.5,0-3.09,0-7.55-.08-13.22,0-11.36-.1-27.54-.17-47l.33.32-67.93.06c-.09.08.72-.72.38-.37h0v4.4c0,1.47,0,2.93,0,4.39v8.66q0,8.58,0,16.76c0,10.9,0,21.2,0,30.67l-.34-.33,49.12.17,13.86.09,3.67,0,.95,0,.34,0a1.45,1.45,0,0,1-.3,0l-.91,0-3.61,0-13.78.09-49.34.17h-.33v-.34c0-9.47,0-19.77,0-30.67q0-8.18,0-16.76V173.06h0c-.34.33.46-.48.39-.4l67.93.06h.33V173c-.07,19.51-.13,35.76-.17,47.17,0,5.64-.07,10.07-.09,13.14,0,1.48,0,2.63,0,3.44,0,.36,0,.65,0,.87A1.32,1.32,0,0,1,342.9,237.94Z"></path></g><path d="M350.21,309.22c0,.14-18.49.26-41.28.26s-41.27-.12-41.27-.26,18.47-.26,41.27-.26S350.21,309.07,350.21,309.22Z" style="fill:#e0e0e0"></path><path d="M446.6,308.68c0,.15-17.78.26-39.71.26s-39.73-.11-39.73-.26,17.78-.26,39.73-.26S446.6,308.54,446.6,308.68Z" style="fill:#e0e0e0"></path><path d="M544.9,307.17c0,.15-17.67.26-39.47.26s-39.47-.11-39.47-.26,17.67-.26,39.47-.26S544.9,307,544.9,307.17Z" style="fill:#e0e0e0"></path><path d="M350.21,322.6c0,.15-18.49.26-41.28.26s-41.27-.11-41.27-.26,18.47-.26,41.27-.26S350.21,322.46,350.21,322.6Z" style="fill:#e0e0e0"></path><path d="M446.6,322.07c0,.14-17.78.26-39.71.26s-39.73-.12-39.73-.26,17.78-.26,39.73-.26S446.6,321.92,446.6,322.07Z" style="fill:#e0e0e0"></path><path d="M544.9,320.56c0,.14-17.67.26-39.47.26S466,320.7,466,320.56s17.67-.26,39.47-.26S544.9,320.42,544.9,320.56Z" style="fill:#e0e0e0"></path></g><g id="freepik--Button--inject-5"><rect x="319.99" y="341.21" width="183.63" height="53.93" rx="26.97" style="fill:#A855A6"></rect><path d="M386.31,368.1c0,2.41-1.81,3.9-4.69,3.9h-2.18v3h-2.5v-10.8h4.68C384.5,364.18,386.31,365.68,386.31,368.1Zm-2.53,0c0-1.19-.77-1.88-2.3-1.88h-2V370h2C383,370,383.78,369.27,383.78,368.1Z" style="fill:#fff"></path><path d="M388,370.23v-6.05h2.5v6c0,2.05.89,2.9,2.41,2.9s2.4-.85,2.4-2.9v-6h2.47v6.05c0,3.18-1.82,4.94-4.89,4.94S388,373.41,388,370.23Z" style="fill:#fff"></path><path d="M410.11,372c0,1.87-1.48,3-4.32,3H400.2v-10.8h5.28c2.7,0,4.09,1.13,4.09,2.81a2.59,2.59,0,0,1-1.44,2.37A2.68,2.68,0,0,1,410.11,372Zm-7.42-6v2.55h2.48c1.22,0,1.88-.43,1.88-1.28s-.66-1.27-1.88-1.27Zm4.9,5.71c0-.91-.69-1.34-2-1.34h-2.91v2.67h2.91C406.9,373.1,407.59,372.7,407.59,371.77Z" style="fill:#fff"></path><path d="M412,364.18h2.5v8.76h5.41v2H412Z" style="fill:#fff"></path><path d="M421.33,364.18h2.5V375h-2.5Z" style="fill:#fff"></path><path d="M425.55,373.92l.84-1.89a6.31,6.31,0,0,0,3.57,1.13c1.48,0,2.08-.49,2.08-1.16,0-2-6.28-.63-6.28-4.64,0-1.84,1.48-3.36,4.55-3.36a7.26,7.26,0,0,1,3.75.95l-.77,1.9a6.11,6.11,0,0,0-3-.85c-1.48,0-2.05.56-2.05,1.24,0,2,6.27.61,6.27,4.58,0,1.8-1.49,3.35-4.58,3.35A7.67,7.67,0,0,1,425.55,373.92Z" style="fill:#fff"></path><path d="M446.15,364.18V375h-2.5v-4.43h-4.91V375h-2.5v-10.8h2.5v4.26h4.91v-4.26Z" style="fill:#fff"></path></g><g id="freepik--Cursor--inject-5"><path d="M469.12,394.76a15.66,15.66,0,0,1,1.74,5.39h3.23l13.56-.23-.1.24s2.21-10.4,2.61-13.49c.34-2.55,1.91-8.65,0-11.34a2.82,2.82,0,0,0-3.11-1,2.19,2.19,0,0,0-1.55,1.7s-.16-3.6-2.75-3.66-2.68,2-2.68,2-.71-4.12-3.59-4.08a2.76,2.76,0,0,0-2.38,2v-7.78a3,3,0,0,0-2.8-3,2.91,2.91,0,0,0-3,2.87L468,382.38l-4.4-5.64c-1.15-1.46-3.89-.73-4.24.52,0,0-.79,1.66.84,4.09C461.47,383.18,469.12,394.76,469.12,394.76Z" style="fill:#ebebeb"></path><path d="M469.12,394.76a3.54,3.54,0,0,1-.22-.29l-.59-.86-2.26-3.37-3.56-5.34-2.23-3.34a6.72,6.72,0,0,1-1-2,3.71,3.71,0,0,1,0-2.35h0a1.94,1.94,0,0,1,1-1.05,3.42,3.42,0,0,1,1.41-.36,2.73,2.73,0,0,1,1.47.35,2.57,2.57,0,0,1,.32.22l.28.29.46.6,3.93,5-.23.08c.06-5.05.12-10.59.19-16.49v-1.11a5.61,5.61,0,0,1,.08-1.14,3.06,3.06,0,0,1,6,.19,7,7,0,0,1,.06,1.2v7.18l-.31,0a3,3,0,0,1,1.34-1.72,3.09,3.09,0,0,1,.87-.34,1.34,1.34,0,0,1,.49,0,2.42,2.42,0,0,1,.46.06,3,3,0,0,1,1.6.92,6.72,6.72,0,0,1,1.52,3.22l-.31,0a2.25,2.25,0,0,1,1.33-1.85,3.43,3.43,0,0,1,1.13-.25,2.18,2.18,0,0,1,.57,0l.29,0,.28.08a2.78,2.78,0,0,1,1.6,1.55,6.07,6.07,0,0,1,.53,2.13l-.3,0a2.37,2.37,0,0,1,1.46-1.74,3,3,0,0,1,2.25,0,3,3,0,0,1,.94.65,4.08,4.08,0,0,1,.62.93,6.81,6.81,0,0,1,.55,2.09,31.76,31.76,0,0,1-.77,8.14c-.36,2.6-.88,5.07-1.34,7.42l-1.39,6.69-.22-.07.1-.24.11.16-13.55.2.07-.08h0v.07h-3.36v-.06a15.72,15.72,0,0,0-1.08-4c-.18-.45-.34-.78-.45-1a2.94,2.94,0,0,1-.15-.34,11.43,11.43,0,0,1,.66,1.31,15.76,15.76,0,0,1,1.15,4.07l-.07-.06h3.23l-.07.08h0v-.07h.07l13.56-.28h.17l-.07.16c0,.08-.06.15-.09.24l-.22-.07c.43-2.1.88-4.34,1.36-6.69s1-4.81,1.32-7.41a32,32,0,0,0,.75-8.06,6.93,6.93,0,0,0-.52-2,4.08,4.08,0,0,0-.57-.85,2.76,2.76,0,0,0-.85-.57,2.62,2.62,0,0,0-2,0,2.07,2.07,0,0,0-1.27,1.53l-.22,1-.08-1.07a5.68,5.68,0,0,0-.51-2,2.44,2.44,0,0,0-1.42-1.38,3.11,3.11,0,0,0-2,.12,1.91,1.91,0,0,0-1.15,1.58l-.1,1-.21-1a6.42,6.42,0,0,0-1.44-3.06,2.38,2.38,0,0,0-3-.54,2.71,2.71,0,0,0-1.2,1.55l-.3.95V365a7.09,7.09,0,0,0-.05-1.14,2.87,2.87,0,0,0-.4-1,2.71,2.71,0,0,0-3.81-.87,2.77,2.77,0,0,0-1.19,1.72,5.38,5.38,0,0,0-.08,1.08c0,.37,0,.74,0,1.11-.08,5.89-.16,11.43-.23,16.49v.37l-.24-.29c-1.36-1.75-2.66-3.44-3.91-5a3.9,3.9,0,0,0-1-1.06,2.51,2.51,0,0,0-1.34-.32,3.15,3.15,0,0,0-1.32.34,1.64,1.64,0,0,0-.86.9h0a3.52,3.52,0,0,0,0,2.2,6.61,6.61,0,0,0,.95,1.94l2.2,3.36,3.53,5.37c.95,1.47,1.69,2.61,2.21,3.39l.56.89Z" style="fill:#263238"></path><rect x="468.52" y="399.94" width="21.64" height="4.83" rx="2.33" style="fill:#ebebeb"></rect><path d="M487.83,404.78s.17,0,.48-.09a2.24,2.24,0,0,0,1.18-.7,2.44,2.44,0,0,0,.49-.87,2.82,2.82,0,0,0,.07-1.17,2.25,2.25,0,0,0-1.91-1.87l-17.28,0a2.17,2.17,0,0,0-2.18,2.24,2.12,2.12,0,0,0,.23,1.09,2.22,2.22,0,0,0,1.74,1.19c.74,0,1.51,0,2.23,0l7.78,0,5.24.05,1.43,0,.5,0a3.21,3.21,0,0,1-.5,0l-1.43,0-5.24.05-7.78,0c-.74,0-1.47,0-2.26,0a2.57,2.57,0,0,1,.24-5.13c6.76,0,12.86,0,17.31.07a2.42,2.42,0,0,1,2.05,2.06,3,3,0,0,1-.09,1.25,2.5,2.5,0,0,1-.55.9,2.33,2.33,0,0,1-1.25.69A1.72,1.72,0,0,1,487.83,404.78Z" style="fill:#263238"></path><path d="M474,378.86a38.47,38.47,0,0,1,0-7,38.47,38.47,0,0,1,0,7Z" style="fill:#263238"></path><path d="M480,378.38a13.67,13.67,0,0,1,0-4.17,14.57,14.57,0,0,1,0,4.17Z" style="fill:#263238"></path><path d="M485.49,380.13a14.5,14.5,0,0,1,0-4.16,13.6,13.6,0,0,1,0,4.16Z" style="fill:#263238"></path><path d="M467,361.12a21,21,0,0,1-3.31-1.51,21.8,21.8,0,0,1-3.17-1.79,21,21,0,0,1,3.31,1.51A21.8,21.8,0,0,1,467,361.12Z" style="fill:#263238"></path><path d="M470,359.47a37.2,37.2,0,0,1-.87-4.59,36.22,36.22,0,0,1-.57-4.63,33.69,33.69,0,0,1,.88,4.58A33.17,33.17,0,0,1,470,359.47Z" style="fill:#263238"></path><path d="M473.62,359.89a22.63,22.63,0,0,1,2-3.19,23,23,0,0,1,2.3-3,23,23,0,0,1-2,3.2A23.29,23.29,0,0,1,473.62,359.89Z" style="fill:#263238"></path></g></svg>