<svg xmlns="http://www.w3.org/2000/svg" viewBox="0 0 750 500"><g id="freepik--background-complete--inject-8"><path d="M650,220.72a28.4,28.4,0,0,1-8.4,3.4,29,29,0,1,1,8.4-3.4Z" style="fill:#ebebeb"></path><path d="M643.92,192.67a8.82,8.82,0,1,1-8.71-8.92A8.82,8.82,0,0,1,643.92,192.67Z" style="fill:#fff"></path><path d="M650.06,217.08l0,3.64a28.4,28.4,0,0,1-8.4,3.4,28.81,28.81,0,0,1-22.08-3.77l0-3.63a15.25,15.25,0,0,1,30.49.36Z" style="fill:#fff"></path><path d="M114.72,138.82a19,19,0,0,1-28.29-12,19,19,0,1,1,28.29,12Z" style="fill:#ebebeb"></path><path d="M110.73,120.45A5.78,5.78,0,1,1,105,114.6,5.78,5.78,0,0,1,110.73,120.45Z" style="fill:#fff"></path><path d="M114.75,136.44l0,2.38a19,19,0,0,1-20-.25l0-2.37a10,10,0,1,1,20,.24Z" style="fill:#fff"></path><path d="M261.56,140.3H134.92V53.67H261.56Zm-125.64-1H260.56V54.67H135.92Z" style="fill:#ebebeb"></path><path d="M144.82,59.25a2.52,2.52,0,1,1-2.52-2.52A2.52,2.52,0,0,1,144.82,59.25Z" style="fill:#a6a6a6"></path><path d="M155.11,59.25a2.52,2.52,0,1,1-2.52-2.52A2.52,2.52,0,0,1,155.11,59.25Z" style="fill:#ebebeb"></path><path d="M165.41,59.25a2.53,2.53,0,1,1-2.52-2.52A2.52,2.52,0,0,1,165.41,59.25Z" style="fill:#BA40B3"></path><rect x="135.42" y="63.68" width="125.64" height="1" style="fill:#ebebeb"></rect><rect x="85.57" y="185.02" width="66.59" height="42.23" transform="translate(-26.76 17.95) rotate(-7.77)" style="fill:#ebebeb"></rect><path d="M149,180.72c-2.32,2.91-4.7,5.72-7,8.6s-4.75,5.64-7.15,8.44-5,5.82-7.52,8.71l-.22.27q-3.34,3.82-6.7,7.63l-.34.37-.41-.26c-2.83-1.86-5.66-3.71-8.49-5.58a2.49,2.49,0,0,1-.3-.19q-4.8-3.15-9.59-6.38-4.56-3.08-9.13-6.22c-3-2.14-6.08-4.21-9.09-6.39,3.13,1.79,6.23,3.71,9.34,5.56s6.21,3.8,9.3,5.74q5.16,3.21,10.33,6.53h0l7.73,4.95c2-2.28,4.07-4.58,6.11-6.84l0,0c2.72-3,5.45-6.06,8.2-9q3.69-4,7.42-8C144,186,146.47,183.29,149,180.72Z" style="fill:#fff"></path><path d="M112.22,208.49a.5.5,0,0,0-.07.08l-.92,1c-1.47,1.63-3,3.2-4.53,4.73-1.88,1.89-3.82,3.72-5.77,5.54s-4,3.58-6,5.31-4.09,3.43-6.25,5c1.76-2,3.62-3.95,5.51-5.83s3.83-3.72,5.77-5.54,4-3.59,6-5.32c1.61-1.38,3.27-2.75,5-4l1.18-.9Z" style="fill:#fff"></path><path d="M154.37,221.24c-2.51-1-5-2.05-7.37-3.17s-4.81-2.31-7.19-3.51-4.73-2.48-7.05-3.79c-1.89-1.07-3.76-2.17-5.6-3.34l-1.17-.75-.09-.06.11,0,1.38.56c2,.8,3.94,1.67,5.87,2.57,2.43,1.12,4.81,2.31,7.19,3.52s4.72,2.47,7,3.79S152.13,219.76,154.37,221.24Z" style="fill:#fff"></path><rect x="596.23" y="226.85" width="66.9" height="105.49" transform="translate(212.56 827.94) rotate(-76.68)" style="fill:#ebebeb"></rect><path d="M688.71,259.19c-5.09,3-10.21,5.78-15.31,8.7s-10.24,5.64-15.38,8.41q-8,4.35-16.08,8.58l-.49.28q-7.11,3.73-14.25,7.46l-.7.35-.45-.62q-4.71-6.53-9.38-13.08c-.11-.13-.22-.29-.33-.45-3.54-4.94-7.05-9.89-10.54-14.9-3.33-4.76-6.65-9.58-10-14.39s-6.58-9.69-9.79-14.64c3.61,4.45,7.09,9,10.63,13.55s7,9.15,10.48,13.78q5.8,7.69,11.55,15.54s0,0,0,0c2.87,3.89,5.74,7.81,8.61,11.72,4.3-2.22,8.62-4.45,12.93-6.62,0,0,0,0,0,0,5.76-2.93,11.51-5.85,17.28-8.71q7.75-3.86,15.53-7.6C678.32,264.09,683.49,261.55,688.71,259.19Z" style="fill:#fff"></path><path d="M618.51,279.28c-.06,0-.1.06-.15.08l-1.94,1q-4.63,2.34-9.38,4.4c-3.86,1.73-7.77,3.33-11.69,4.9s-7.87,3-11.86,4.44-8,2.75-12.11,3.88c3.76-2,7.6-3.77,11.46-5.48s7.78-3.32,11.69-4.9,7.89-3,11.88-4.45c3.18-1.12,6.4-2.2,9.65-3.15.76-.23,1.51-.44,2.27-.65Z" style="fill:#fff"></path><path d="M673.55,322.15c-3.16-2.85-6.16-5.85-9.08-8.89s-5.79-6.16-8.63-9.29-5.58-6.35-8.26-9.62c-2.19-2.65-4.33-5.34-6.38-8.12l-1.3-1.77s-.06-.1-.1-.14a.63.63,0,0,0,.13.11l1.74,1.62c2.48,2.31,4.86,4.71,7.21,7.14,2.94,3.05,5.79,6.16,8.61,9.3s5.58,6.35,8.26,9.62S671.08,318.68,673.55,322.15Z" style="fill:#fff"></path><rect x="411.8" y="38.96" width="60.61" height="38.44" style="fill:#ebebeb"></rect><path d="M472.4,39c-2.44,2.34-4.94,4.58-7.4,6.89s-5,4.51-7.49,6.73-5.23,4.64-7.85,6.93l-.24.22-7,6.06-.34.28-.34-.28-7-6.07-.25-.21q-3.94-3.43-7.86-6.94c-2.5-2.21-5-4.47-7.47-6.72s-5-4.55-7.41-6.89c2.6,2,5.16,4.11,7.73,6.17s5.14,4.18,7.69,6.32q4.25,3.52,8.5,7.15l0,0c2.12,1.79,4.24,3.6,6.37,5.41,2.11-1.81,4.23-3.63,6.35-5.41,0,0,0,0,0,0q4.25-3.6,8.51-7.16,3.81-3.18,7.67-6.3C467.24,43.07,469.8,41,472.4,39Z" style="fill:#fff"></path><path d="M435.82,59.48s-.05.05-.08.06c-.32.28-.63.55-.95.81-1.52,1.29-3.08,2.52-4.66,3.71-1.93,1.47-3.91,2.88-5.89,4.29s-4,2.73-6,4.05-4.12,2.59-6.26,3.76c1.84-1.61,3.75-3.11,5.68-4.57s3.92-2.89,5.89-4.29,4-2.75,6.05-4.06c1.63-1.05,3.29-2.08,5-3l1.18-.67Z" style="fill:#fff"></path><path d="M472.26,76.16C470.12,75,468,73.71,466,72.4S462,69.72,460,68.35s-4-2.82-5.89-4.29c-1.57-1.19-3.13-2.41-4.64-3.7l-1-.82s0,0-.07-.06l.09.05,1.18.67c1.69,1,3.34,2,5,3,2.05,1.31,4.05,2.68,6,4.06s4,2.81,5.89,4.29S470.42,74.55,472.26,76.16Z" style="fill:#fff"></path></g><g id="freepik--Device--inject-8"><rect x="153.44" y="73.03" width="441.45" height="295.29" style="fill:#dbdbdb"></rect><rect x="156.64" y="76.63" width="435.03" height="288.09" style="fill:#263238"></rect><rect x="95.94" y="390.47" width="556.44" height="20.27" style="fill:#c7c7c7"></rect><polygon points="95.94 390.46 153.44 368.32 594.88 368.32 652.38 390.46 95.94 390.46" style="fill:#dbdbdb"></polygon><polygon points="158.57 382.61 195.67 368.32 552.64 368.32 589.75 382.61 158.57 382.61" style="fill:#263238"></polygon><rect x="181.23" y="98.52" width="385.86" height="244.32" style="fill:#fff"></rect><rect x="180.9" y="98.52" width="386.19" height="9.4" style="fill:#455a64"></rect><path d="M188.38,103.22a2.34,2.34,0,1,1-2.34-2.33A2.33,2.33,0,0,1,188.38,103.22Z" style="fill:#c7c7c7"></path><path d="M197.9,103.22a2.34,2.34,0,1,1-2.34-2.33A2.33,2.33,0,0,1,197.9,103.22Z" style="fill:#fff"></path><path d="M207.42,103.22a2.34,2.34,0,1,1-2.33-2.33A2.33,2.33,0,0,1,207.42,103.22Z" style="fill:#BA40B3"></path><rect x="560.24" y="107.92" width="6.85" height="234.91" style="fill:#dbdbdb"></rect><path d="M563.66,189.36h0a1.77,1.77,0,0,1-1.77-1.77V111.06a1.77,1.77,0,0,1,1.77-1.77h0a1.77,1.77,0,0,1,1.77,1.77v76.53A1.77,1.77,0,0,1,563.66,189.36Z" style="fill:#a6a6a6"></path><rect x="292.43" y="122.7" width="207.99" height="7.91" style="fill:#fff"></rect><path d="M500.5,130.69H292.35v-8.07H500.5Z" style="fill:#ebebeb"></path><rect x="492.42" y="122.62" width="8.08" height="8.08" style="fill:#BA40B3"></rect><path d="M499,128.87l-.73.55-1.36-1.78-.49-.66a.88.88,0,0,0,.28-.16,1.25,1.25,0,0,0,.38-.48l.52.69Z" style="fill:#fff"></path><path d="M497.53,124.66a2,2,0,1,0-.65,3,1.67,1.67,0,0,0,.28-.18,2.08,2.08,0,0,0,.41-.43A2,2,0,0,0,497.53,124.66Zm-.86,2.16a.88.88,0,0,1-.28.16,1.17,1.17,0,0,1-1.39-.38,1.19,1.19,0,1,1,2.05-.26A1.25,1.25,0,0,1,496.67,126.82Z" style="fill:#fff"></path><rect x="294.08" y="124.25" width="0.42" height="4.8" style="fill:#c7c7c7"></rect><path d="M546.34,130.92a4.63,4.63,0,0,1-1.29.54,4.5,4.5,0,0,1-5.43-3.3,4.49,4.49,0,1,1,6.72,2.76Z" style="fill:#BA40B3"></path><path d="M545.35,126.58a1.37,1.37,0,1,1-1.37-1.37A1.37,1.37,0,0,1,545.35,126.58Z" style="fill:#fff"></path><path d="M546.34,130.35v.57a4.63,4.63,0,0,1-1.29.54,4.43,4.43,0,0,1-3.43-.55v-.56a2.36,2.36,0,0,1,4.72,0Z" style="fill:#fff"></path><path d="M530.78,131.59h-3.13v-1.11a.16.16,0,0,0-.09-.15l-.34-.19a.17.17,0,0,0-.18,0l-1,.55-1.56-2.7,1-.56a.18.18,0,0,0,.08-.16c0-.06,0-.13,0-.19s0-.13,0-.19a.18.18,0,0,0-.08-.16l-1-.56,1.56-2.7,1,.55a.17.17,0,0,0,.18,0,3.79,3.79,0,0,1,.34-.2.14.14,0,0,0,.09-.14v-1.11h3.13v1.11a.18.18,0,0,0,.09.15,1.86,1.86,0,0,1,.34.19.17.17,0,0,0,.18,0l1-.55,1.56,2.7-1,.56a.18.18,0,0,0-.08.16c0,.06,0,.12,0,.19s0,.13,0,.19a.18.18,0,0,0,.08.16l1,.56-1.56,2.7-1-.55a.17.17,0,0,0-.18,0l-.34.19a.16.16,0,0,0-.09.15Zm-2.35-.78H530v-.33a.94.94,0,0,1,.52-.84l.27-.15a1,1,0,0,1,1,0l.28.17.79-1.36-.29-.17a.93.93,0,0,1-.47-.87v-.3a.94.94,0,0,1,.47-.88l.29-.16-.79-1.36-.28.16a.93.93,0,0,1-1,0l-.27-.15a1,1,0,0,1-.52-.84v-.33h-1.57v.33a1,1,0,0,1-.52.84l-.27.15a.93.93,0,0,1-1,0l-.28-.16-.79,1.36.29.16a.94.94,0,0,1,.47.88v.3a1,1,0,0,1-.47.88l-.29.16.79,1.36.28-.17a1,1,0,0,1,1,0l.27.16a.94.94,0,0,1,.52.84Zm.79-1.43a2.31,2.31,0,1,1,2.31-2.31A2.31,2.31,0,0,1,529.22,129.38Zm0-3.84a1.53,1.53,0,1,0,1.53,1.53A1.53,1.53,0,0,0,529.22,125.54Z" style="fill:#dbdbdb"></path><rect x="272.14" y="163.23" width="288.1" height="16.33" style="fill:#ebebeb"></rect><rect x="284.92" y="168.94" width="4.9" height="4.9" style="fill:#fff"></rect><polygon points="310.66 173.84 305.76 173.84 307.76 171.39 305.76 168.94 310.66 168.94 312.66 171.39 310.66 173.84" style="fill:#fff"></polygon><polygon points="298.06 168.94 298.85 170.55 300.64 170.81 299.35 172.07 299.65 173.84 298.06 173 296.46 173.84 296.77 172.07 295.48 170.81 297.26 170.55 298.06 168.94" style="fill:#BA40B3"></polygon><rect x="316.18" y="170.39" width="39.07" height="2" style="fill:#263238"></rect><rect x="503.34" y="170.39" width="35.47" height="2" style="fill:#263238"></rect><rect x="367.18" y="170.39" width="121.26" height="2" style="fill:#455a64"></rect><rect x="284.92" y="185.27" width="4.9" height="4.9" style="fill:#fff"></rect><path d="M290.08,190.42h-5.41V185h5.41Zm-4.91-.5h4.41v-4.4h-4.41Z" style="fill:#ebebeb"></path><polygon points="310.66 190.17 305.76 190.17 307.76 187.72 305.76 185.27 310.66 185.27 312.66 187.72 310.66 190.17" style="fill:#fff"></polygon><path d="M310.78,190.42h-5.55l2.2-2.7-2.2-2.7h5.55l2.2,2.7Zm-4.5-.5h4.26l1.8-2.2-1.8-2.2h-4.26l1.8,2.2Z" style="fill:#ebebeb"></path><polygon points="298.06 185.27 298.85 186.88 300.64 187.14 299.35 188.4 299.65 190.17 298.06 189.33 296.46 190.17 296.77 188.4 295.48 187.14 297.26 186.88 298.06 185.27" style="fill:#BA40B3"></polygon><rect x="316.18" y="186.72" width="39.07" height="2" style="fill:#263238"></rect><rect x="503.34" y="186.72" width="35.47" height="2" style="fill:#263238"></rect><rect x="367.18" y="186.72" width="121.26" height="2" style="fill:#455a64"></rect><rect x="272.14" y="195.88" width="288.1" height="16.33" style="fill:#ebebeb"></rect><rect x="284.92" y="201.59" width="4.9" height="4.9" style="fill:#fff"></rect><polygon points="310.66 206.5 305.76 206.5 307.76 204.05 305.76 201.59 310.66 201.59 312.66 204.05 310.66 206.5" style="fill:#fff"></polygon><polygon points="298.06 201.59 298.85 203.21 300.64 203.47 299.35 204.72 299.65 206.5 298.06 205.66 296.46 206.5 296.77 204.72 295.48 203.47 297.26 203.21 298.06 201.59" style="fill:#fff"></polygon><rect x="316.18" y="203.05" width="39.07" height="2" style="fill:#dbdbdb"></rect><rect x="503.34" y="203.05" width="35.47" height="2" style="fill:#dbdbdb"></rect><rect x="367.18" y="203.05" width="121.26" height="2" style="fill:#c7c7c7"></rect><rect x="284.92" y="217.92" width="4.9" height="4.9" style="fill:#fff"></rect><path d="M290.08,223.08h-5.41v-5.41h5.41Zm-4.91-.5h4.41v-4.41h-4.41Z" style="fill:#ebebeb"></path><polygon points="310.66 222.83 305.76 222.83 307.76 220.38 305.76 217.92 310.66 217.92 312.66 220.38 310.66 222.83" style="fill:#fff"></polygon><path d="M310.78,223.08h-5.55l2.2-2.7-2.2-2.71h5.55l2.2,2.71Zm-4.5-.5h4.26l1.8-2.2-1.8-2.21h-4.26l1.8,2.21Z" style="fill:#ebebeb"></path><polygon points="298.06 217.92 298.85 219.54 300.64 219.8 299.35 221.05 299.65 222.83 298.06 221.99 296.46 222.83 296.77 221.05 295.48 219.8 297.26 219.54 298.06 217.92" style="fill:#BA40B3"></polygon><rect x="316.18" y="219.38" width="39.07" height="2" style="fill:#dbdbdb"></rect><rect x="503.34" y="219.38" width="35.47" height="2" style="fill:#dbdbdb"></rect><rect x="367.18" y="219.38" width="121.26" height="2" style="fill:#c7c7c7"></rect><rect x="272.14" y="228.54" width="288.1" height="16.33" style="fill:#ebebeb"></rect><rect x="284.92" y="234.25" width="4.9" height="4.9" style="fill:#fff"></rect><polygon points="310.66 239.16 305.76 239.16 307.76 236.7 305.76 234.25 310.66 234.25 312.66 236.7 310.66 239.16" style="fill:#fff"></polygon><polygon points="298.06 234.25 298.85 235.87 300.64 236.13 299.35 237.38 299.65 239.16 298.06 238.32 296.46 239.16 296.77 237.38 295.48 236.13 297.26 235.87 298.06 234.25" style="fill:#BA40B3"></polygon><rect x="316.18" y="235.71" width="39.07" height="2" style="fill:#dbdbdb"></rect><rect x="503.34" y="235.71" width="35.47" height="2" style="fill:#dbdbdb"></rect><rect x="367.18" y="235.71" width="121.26" height="2" style="fill:#c7c7c7"></rect><rect x="284.92" y="250.58" width="4.9" height="4.91" style="fill:#fff"></rect><path d="M290.08,255.74h-5.41v-5.41h5.41Zm-4.91-.5h4.41v-4.41h-4.41Z" style="fill:#ebebeb"></path><polygon points="310.66 255.49 305.76 255.49 307.76 253.03 305.76 250.58 310.66 250.58 312.66 253.03 310.66 255.49" style="fill:#fff"></polygon><path d="M310.78,255.74h-5.55l2.2-2.71-2.2-2.7h5.55L313,253Zm-4.5-.5h4.26l1.8-2.21-1.8-2.2h-4.26l1.8,2.2Z" style="fill:#ebebeb"></path><polygon points="298.06 250.58 298.85 252.19 300.64 252.45 299.35 253.71 299.65 255.49 298.06 254.65 296.46 255.49 296.77 253.71 295.48 252.45 297.26 252.19 298.06 250.58" style="fill:#fff"></polygon><path d="M300,255.94l-1.92-1-1.93,1,.37-2.14-1.56-1.52,2.15-.31,1-1.95,1,1.95,2.15.31-1.55,1.52Zm-1.92-1.57,1.26.66-.24-1.41,1-1-1.41-.21-.63-1.27-.63,1.27-1.41.21,1,1L296.8,255Z" style="fill:#ebebeb"></path><rect x="316.18" y="252.04" width="39.07" height="2" style="fill:#dbdbdb"></rect><rect x="503.34" y="252.04" width="35.47" height="2" style="fill:#dbdbdb"></rect><rect x="367.18" y="252.04" width="121.26" height="2" style="fill:#c7c7c7"></rect><rect x="272.14" y="261.2" width="288.1" height="16.33" style="fill:#ebebeb"></rect><rect x="284.92" y="266.91" width="4.9" height="4.9" style="fill:#fff"></rect><polygon points="310.66 271.81 305.76 271.81 307.76 269.36 305.76 266.91 310.66 266.91 312.66 269.36 310.66 271.81" style="fill:#fff"></polygon><polygon points="298.06 266.91 298.85 268.52 300.64 268.78 299.35 270.04 299.65 271.81 298.06 270.98 296.46 271.81 296.77 270.04 295.48 268.78 297.26 268.52 298.06 266.91" style="fill:#BA40B3"></polygon><rect x="316.18" y="268.36" width="39.07" height="2" style="fill:#dbdbdb"></rect><rect x="503.34" y="268.36" width="35.47" height="2" style="fill:#dbdbdb"></rect><rect x="367.18" y="268.36" width="121.26" height="2" style="fill:#c7c7c7"></rect><rect x="284.92" y="283.24" width="4.9" height="4.9" style="fill:#fff"></rect><path d="M290.08,288.39h-5.41V283h5.41Zm-4.91-.5h4.41v-4.4h-4.41Z" style="fill:#ebebeb"></path><polygon points="310.66 288.14 305.76 288.14 307.76 285.69 305.76 283.24 310.66 283.24 312.66 285.69 310.66 288.14" style="fill:#fff"></polygon><path d="M310.78,288.39h-5.55l2.2-2.7-2.2-2.7h5.55l2.2,2.7Zm-4.5-.5h4.26l1.8-2.2-1.8-2.2h-4.26l1.8,2.2Z" style="fill:#ebebeb"></path><polygon points="298.06 283.24 298.85 284.85 300.64 285.11 299.35 286.37 299.65 288.14 298.06 287.31 296.46 288.14 296.77 286.37 295.48 285.11 297.26 284.85 298.06 283.24" style="fill:#fff"></polygon><path d="M300,288.6l-1.92-1-1.93,1,.37-2.14-1.56-1.52,2.15-.32,1-1.95,1,1.95,2.15.32-1.55,1.52ZM298.06,287l1.26.67-.24-1.41,1-1-1.41-.21-.63-1.28-.63,1.28-1.41.21,1,1-.24,1.41Z" style="fill:#ebebeb"></path><rect x="316.18" y="284.69" width="39.07" height="2" style="fill:#dbdbdb"></rect><rect x="503.34" y="284.69" width="35.47" height="2" style="fill:#dbdbdb"></rect><rect x="367.18" y="284.69" width="121.26" height="2" style="fill:#c7c7c7"></rect><rect x="272.14" y="293.85" width="288.1" height="16.33" style="fill:#ebebeb"></rect><rect x="284.92" y="299.57" width="4.9" height="4.91" style="fill:#fff"></rect><polygon points="310.66 304.47 305.76 304.47 307.76 302.02 305.76 299.57 310.66 299.57 312.66 302.02 310.66 304.47" style="fill:#fff"></polygon><polygon points="298.06 299.57 298.85 301.18 300.64 301.44 299.35 302.7 299.65 304.47 298.06 303.63 296.46 304.47 296.77 302.7 295.48 301.44 297.26 301.18 298.06 299.57" style="fill:#fff"></polygon><rect x="316.18" y="301.02" width="39.07" height="2" style="fill:#dbdbdb"></rect><rect x="503.34" y="301.02" width="35.47" height="2" style="fill:#dbdbdb"></rect><rect x="367.18" y="301.02" width="121.26" height="2" style="fill:#c7c7c7"></rect><rect x="284.92" y="315.89" width="4.9" height="4.91" style="fill:#fff"></rect><path d="M290.08,321.05h-5.41v-5.41h5.41Zm-4.91-.5h4.41v-4.41h-4.41Z" style="fill:#ebebeb"></path><polygon points="310.66 320.8 305.76 320.8 307.76 318.35 305.76 315.89 310.66 315.89 312.66 318.35 310.66 320.8" style="fill:#fff"></polygon><path d="M310.78,321.05h-5.55l2.2-2.7-2.2-2.71h5.55l2.2,2.71Zm-4.5-.5h4.26l1.8-2.2-1.8-2.21h-4.26l1.8,2.21Z" style="fill:#ebebeb"></path><polygon points="298.06 315.89 298.85 317.51 300.64 317.77 299.35 319.02 299.65 320.8 298.06 319.96 296.46 320.8 296.77 319.02 295.48 317.77 297.26 317.51 298.06 315.89" style="fill:#fff"></polygon><path d="M300,321.26l-1.92-1-1.93,1,.37-2.15-1.56-1.52,2.15-.31,1-1.95,1,1.95,2.15.31-1.55,1.52Zm-1.92-1.58,1.26.66-.24-1.4,1-1-1.41-.2-.63-1.28-.63,1.28-1.41.2,1,1-.24,1.4Z" style="fill:#ebebeb"></path><rect x="316.18" y="317.35" width="39.07" height="2" style="fill:#dbdbdb"></rect><rect x="503.34" y="317.35" width="35.47" height="2" style="fill:#dbdbdb"></rect><rect x="367.18" y="317.35" width="121.26" height="2" style="fill:#c7c7c7"></rect><rect x="272.14" y="326.51" width="288.1" height="16.33" style="fill:#ebebeb"></rect><rect x="284.92" y="332.22" width="4.9" height="4.9" style="fill:#fff"></rect><polygon points="310.66 337.13 305.76 337.13 307.76 334.68 305.76 332.22 310.66 332.22 312.66 334.68 310.66 337.13" style="fill:#fff"></polygon><polygon points="298.06 332.22 298.85 333.84 300.64 334.1 299.35 335.35 299.65 337.13 298.06 336.29 296.46 337.13 296.77 335.35 295.48 334.1 297.26 333.84 298.06 332.22" style="fill:#BA40B3"></polygon><rect x="316.18" y="333.68" width="39.07" height="2" style="fill:#dbdbdb"></rect><rect x="503.34" y="333.68" width="35.47" height="2" style="fill:#dbdbdb"></rect><rect x="367.18" y="333.68" width="121.26" height="2" style="fill:#c7c7c7"></rect><rect x="300.72" y="148.5" width="54.54" height="5.84" style="fill:#dbdbdb"></rect><rect x="284.92" y="148.5" width="7.43" height="5.84" style="fill:#dbdbdb"></rect><path d="M292.36,148.5l-.91.95-.92.93-1,1,0,0-.86.83,0,0,0,0-.86-.84,0,0-1-1-.92-.93-.91-.95c.32.27.63.56.95.85l.94.87,1.05,1h0l.78.75.78-.75h0l1.05-1,.94-.87C291.73,149.06,292,148.77,292.36,148.5Z" style="fill:#fff"></path><path d="M287.87,151.2h0l-.12.15c-.18.25-.38.48-.57.7l-.72.81-.74.76c-.25.25-.51.49-.77.71.22-.3.46-.59.7-.86s.48-.54.72-.81.49-.52.74-.76.4-.39.61-.57l.15-.13Z" style="fill:#fff"></path><path d="M292.34,154.34c-.26-.22-.52-.46-.77-.71l-.74-.76c-.24-.27-.49-.53-.72-.81s-.39-.45-.57-.69l-.12-.16h0l.15.13c.21.18.41.37.61.57s.5.5.74.76.49.53.72.81S292.11,154,292.34,154.34Z" style="fill:#fff"></path><rect x="392.5" y="148.5" width="54.54" height="5.84" style="fill:#dbdbdb"></rect><path d="M380.06,150.48a1.24,1.24,0,1,1-1.24-1.24A1.23,1.23,0,0,1,380.06,150.48Z" style="fill:#dbdbdb"></path><path d="M381,153.89v.45h-4.28v-.45a2.14,2.14,0,1,1,4.28,0Z" style="fill:#dbdbdb"></path><path d="M383.23,149.73A1.24,1.24,0,1,1,382,148.5,1.23,1.23,0,0,1,383.23,149.73Z" style="fill:#dbdbdb"></path><path d="M384.13,153.14v.45h-4.28v-.45a2.14,2.14,0,0,1,4.28,0Z" style="fill:#dbdbdb"></path><rect x="484.28" y="148.5" width="54.54" height="5.84" style="fill:#dbdbdb"></rect><path d="M475.91,148.5h-7.43v5.84h7.43l2.22-2.92Zm.06,3.36a.44.44,0,0,1-.44-.44A.44.44,0,0,1,476,151a.43.43,0,0,1,.44.44A.44.44,0,0,1,476,151.86Z" style="fill:#dbdbdb"></path><rect x="180.9" y="107.92" width="91.24" height="234.91" style="fill:#BA40B3"></rect><rect x="193.66" y="142.7" width="65.73" height="17.43" style="fill:#fff"></rect><rect x="193.66" y="122.62" width="9.16" height="1.47" style="fill:#fff"></rect><rect x="193.66" y="129.22" width="9.16" height="1.47" style="fill:#fff"></rect><rect x="193.66" y="125.96" width="9.16" height="1.47" style="fill:#fff"></rect><rect x="211.52" y="122.62" width="12.74" height="8.08" style="fill:#ebebeb"></rect><path d="M224.26,122.62v8.07H211.52v-8.07c.55.31,1.09.63,1.63.95s1.08.64,1.61,1l1.79,1.11h0l1.34.84,1.34-.84h0l1.79-1.11c.53-.33,1.07-.65,1.61-1S223.71,122.93,224.26,122.62Z" style="fill:#ebebeb"></path><path d="M224.26,122.62l-1.56,1.06-1.57,1-1.65,1.07,0,0-1.47.94-.07,0-.07,0-1.47-.94,0,0-1.65-1.07-1.57-1-1.56-1.06c.55.31,1.09.63,1.63.95s1.08.64,1.61,1l1.79,1.11h0l1.34.84,1.34-.84h0l1.79-1.11c.53-.33,1.07-.65,1.61-1S223.71,122.93,224.26,122.62Z" style="fill:#fff"></path><path d="M216.57,125.64h0l-.2.17c-.32.27-.64.53-1,.78s-.82.61-1.23.9-.84.58-1.27.85-.87.55-1.32.79c.39-.34.79-.65,1.2-1s.82-.61,1.23-.9.84-.58,1.28-.85.69-.44,1-.64l.25-.14Z" style="fill:#fff"></path><path d="M224.23,129.14c-.45-.24-.89-.51-1.32-.79s-.85-.56-1.27-.85-.83-.59-1.24-.9-.65-.51-1-.78l-.2-.17h0l.25.14c.35.2.7.42,1,.64s.86.56,1.27.85.84.59,1.24.9S223.84,128.8,224.23,129.14Z" style="fill:#fff"></path><rect x="180.9" y="175.33" width="91.24" height="12.39" style="fill:#020100;opacity:0.1"></rect><rect x="193.66" y="177.99" width="52.91" height="7.28" style="fill:#fff"></rect><rect x="193.66" y="192.24" width="52.91" height="7.28" style="fill:#fff"></rect><rect x="193.66" y="206.5" width="52.91" height="7.28" style="fill:#fff"></rect><rect x="193.66" y="220.75" width="52.91" height="7.28" style="fill:#fff"></rect><rect x="204.89" y="235.01" width="52.91" height="7.28" style="fill:#455a64"></rect><rect x="204.89" y="249.26" width="52.91" height="7.28" style="fill:#455a64"></rect><rect x="193.66" y="263.52" width="52.91" height="7.28" style="fill:#fff"></rect><rect x="193.66" y="277.77" width="52.91" height="7.28" style="fill:#fff"></rect></g><g id="freepik--paper-plane--inject-8"><path d="M180.36,268.47c-.06-.68-.09-1.36-.09-2H181c0,.65,0,1.31.09,2Z" style="fill:#263238"></path><path d="M244.78,316.11v-.75c1.33,0,2.67-.05,4-.14l.05.75C247.47,316.05,246.12,316.1,244.78,316.11Zm-5-.15c-1.34-.09-2.69-.22-4-.39l.09-.74c1.31.16,2.65.29,4,.38Zm14.06-.5-.1-.75c1.3-.18,2.63-.4,3.93-.66l.14.74C256.47,315.05,255.13,315.27,253.81,315.46Zm-23-.71c-1.3-.26-2.62-.57-3.92-.91l.19-.72c1.28.33,2.59.64,3.88.9Zm31.91-1.11-.19-.72c1.27-.34,2.56-.73,3.82-1.15l.23.72C265.27,312.91,264,313.29,262.68,313.64ZM222,312.38c-1.27-.43-2.54-.9-3.78-1.41l.29-.69c1.22.5,2.48,1,3.73,1.39Zm49.24-1.62-.28-.7c.64-.25,1.28-.52,1.92-.8s1.16-.51,1.73-.78l.32.67c-.58.28-1.16.54-1.75.8Zm-57.61-1.85c-1.2-.58-2.4-1.22-3.56-1.87l.36-.66c1.16.65,2.34,1.28,3.53,1.86Zm65.74-2.11-.38-.65c1.13-.66,2.26-1.38,3.35-2.13l.42.62C281.69,305.4,280.55,306.12,279.4,306.8Zm-73.6-2.38c-1.12-.73-2.23-1.51-3.3-2.31l.44-.6c1.07.79,2.17,1.56,3.27,2.28Zm81-2.8-.47-.58c1-.82,2-1.7,3-2.61l.51.55C288.85,299.9,287.83,300.79,286.81,301.62ZM198.56,299c-1-.87-2-1.79-3-2.72l.52-.54c1,.92,1.94,1.83,3,2.69Zm94.85-3.53-.54-.52c.89-.95,1.78-1.95,2.65-3l.57.49C295.21,293.47,294.31,294.48,293.41,295.44ZM192.1,292.62c-.9-1-1.76-2.06-2.58-3.11l.6-.46c.8,1,1.65,2.07,2.54,3.07Zm107.14-4.1-.6-.46c.78-1,1.57-2.11,2.35-3.22l.62.43C300.82,286.39,300,287.48,299.24,288.52Zm-112.62-3.13c-.74-1.15-1.42-2.32-2-3.49l.67-.35c.6,1.15,1.28,2.3,2,3.43Zm117.79-4.29-.63-.4c.72-1.12,1.42-2.25,2.12-3.39l.64.39C305.84,278.85,305.13,280,304.41,281.1Zm-121.93-3.79a35.85,35.85,0,0,1-1.25-3.85l.72-.19a36,36,0,0,0,1.23,3.77Zm126.61-3.94-.66-.37c.66-1.15,1.31-2.32,2-3.5l.65.36Q310.08,271.63,309.09,273.37Zm4.33-7.93-.67-.35c.62-1.17,1.24-2.36,1.85-3.55l.67.34C314.65,263.08,314,264.27,313.42,265.44Zm4.12-8-.67-.34,1.8-3.58.67.33Zm4-8.07-.67-.34,1.8-3.58.67.33Zm4.06-8L325,241c.6-1.19,1.22-2.38,1.84-3.57l.66.35Zm4.18-8-.66-.36q.94-1.76,1.92-3.51l.66.36Q330.77,231.57,329.82,233.32Zm4.38-7.84-.65-.38q1-1.72,2-3.45l.65.39C335.55,223.18,334.87,224.33,334.2,225.48Zm4.67-7.67-.63-.4c.72-1.13,1.45-2.24,2.2-3.35l.62.42C340.31,215.58,339.59,216.69,338.87,217.81Zm5-7.43-.61-.44c.78-1.09,1.58-2.16,2.39-3.23l.6.45C345.48,208.23,344.69,209.3,343.91,210.38Zm5.47-7.13-.58-.48c.86-1,1.73-2.07,2.6-3.06l.56.49C351.1,201.19,350.23,202.21,349.38,203.25Zm5.95-6.73-.55-.52c.93-1,1.88-1.94,2.82-2.86l.53.53C357.19,194.59,356.25,195.55,355.33,196.52Zm6.44-6.26-.5-.55c1-.89,2-1.78,3-2.63l.48.58C363.77,188.5,362.75,189.38,361.77,190.26Zm6.93-5.69-.45-.6c1.07-.81,2.17-1.6,3.26-2.35l.42.62C370.85,183,369.77,183.77,368.7,184.57Zm7.39-5.08-.39-.63c1.13-.71,2.29-1.4,3.45-2.06l.37.65C378.37,178.1,377.22,178.79,376.09,179.49Z" style="fill:#263238"></path><path d="M384.08,175l-.34-.66q.88-.47,1.8-.9l.33.68Z" style="fill:#263238"></path><polygon points="381.81 162.9 375.54 180.13 388.71 169.84 439.05 151.58 381.81 162.9" style="fill:#BA40B3"></polygon><polygon points="381.81 162.9 375.54 180.13 388.71 169.84 439.05 151.58 381.81 162.9" style="opacity:0.1"></polygon><polygon points="390.4 173.85 375.54 180.13 388.71 169.84 390.4 173.85" style="fill:#263238"></polygon><polygon points="388.71 169.84 439.05 151.58 397.76 191.88 388.71 169.84" style="fill:#BA40B3"></polygon><polygon points="381.81 162.9 360.89 149.39 439.05 151.58 381.81 162.9" style="fill:#BA40B3"></polygon></g><g id="freepik--Notification--inject-8"><circle cx="561.89" cy="107.36" r="48.78" transform="translate(322.6 626.97) rotate(-76.09)" style="fill:#a6a6a6"></circle><rect x="528.6" y="86.25" width="66.59" height="42.23" style="fill:#fff"></rect><path d="M595.19,86.25c-2.69,2.57-5.43,5-8.14,7.56s-5.47,5-8.22,7.41-5.75,5.09-8.63,7.61l-.26.24-7.67,6.66-.38.31-.37-.31-7.66-6.67-.27-.23c-2.89-2.52-5.77-5-8.64-7.63s-5.48-4.91-8.21-7.39-5.45-5-8.14-7.56c2.86,2.2,5.67,4.52,8.5,6.78s5.64,4.6,8.44,6.94c3.12,2.58,6.24,5.21,9.35,7.86,0,0,0,0,0,0,2.33,2,4.66,4,7,5.94,2.32-2,4.65-4,7-5.94,0,0,0,0,0,0q4.67-4,9.35-7.87c2.8-2.32,5.61-4.64,8.43-6.92S592.33,88.45,595.19,86.25Z" style="fill:#dbdbdb"></path><path d="M555,108.79l-.08.07-1,.89c-1.67,1.41-3.38,2.76-5.12,4.07-2.12,1.62-4.29,3.17-6.47,4.71s-4.39,3-6.64,4.46-4.52,2.85-6.87,4.14c2-1.77,4.12-3.42,6.24-5s4.3-3.17,6.47-4.72,4.4-3,6.65-4.46c1.79-1.15,3.61-2.28,5.47-3.34l1.3-.73Z" style="fill:#dbdbdb"></path><path d="M595,127.13c-2.35-1.29-4.63-2.7-6.87-4.14s-4.45-2.94-6.65-4.46-4.35-3.09-6.47-4.71c-1.73-1.31-3.44-2.65-5.1-4.06l-1.06-.9-.08-.07.1,0,1.3.74c1.86,1.06,3.67,2.19,5.47,3.34,2.25,1.44,4.45,2.94,6.64,4.46s4.35,3.1,6.47,4.72S593,125.36,595,127.13Z" style="fill:#dbdbdb"></path><circle cx="587.9" cy="86.25" r="10.74" transform="translate(3.82 195.41) rotate(-18.93)" style="fill:#BA40B3"></circle><path d="M586.72,88.61V79.87a1.2,1.2,0,0,1,1.19-1.19,1.18,1.18,0,0,1,1.17,1.19v8.74a1.16,1.16,0,0,1-1.17,1.18A1.18,1.18,0,0,1,586.72,88.61Zm1.19,5.21a1.19,1.19,0,0,1-1.19-1.19V92.2A1.2,1.2,0,0,1,587.91,91a1.18,1.18,0,0,1,1.17,1.19v.43A1.17,1.17,0,0,1,587.91,93.82Z" style="fill:#fff"></path></g><g id="freepik--Puff--inject-8"><path d="M87.49,444.86l144.58.63c35.15-27.6,38.78-68.48,13.7-93.27-15.17-15-34.44-12-52.78-14.35h-.06a54.31,54.31,0,0,1-18.61-5.47c-18.89-10-29.54-33.47-45.43-53.25q-3-3.72-6.22-7.21C109.6,258,83.58,257.53,70,277.15,35.41,327,51.24,401.2,87.49,444.86Z" style="fill:#c7c7c7"></path><path d="M84.28,330.8c3.79,59.32,72.29,81.46,115.08,63.69,37.2-15.45,25-50.72-6.37-56.62h-.06a54.31,54.31,0,0,1-18.61-5.47c-18.89-10-29.54-33.47-45.43-53.25C105.21,266.85,81.5,287.37,84.28,330.8Z" style="fill:#dbdbdb"></path></g><g id="freepik--Character--inject-8"><path d="M199.21,454.14c-2.14-.75-50.8-38.53-51.75-41.14-.36-1,4.73-8.4,11.13-17.17,1.38-1.9,2.82-3.85,4.29-5.82,9.55-12.81,20-26.18,20-26.18L215.48,389l-20.87,25.48-4.58,5.6s12.17,22.79,12.9,25.77S201.36,454.89,199.21,454.14Z" style="fill: rgb(247, 169, 160);"></path><path d="M168,383.17c-1.69,2.24-3.42,4.56-5.13,6.84-1.47,2-2.91,3.92-4.29,5.81C152.18,404.6,147.1,412,147.46,413c.95,2.61,49.61,40.39,51.76,41.14s4.42-5.31,3.71-8.28S190,420.09,190,420.09l4.58-5.6,4.66-5.68Z" style="fill:#ebebeb"></path><path d="M199.44,454.6c-2.17-.78-51.49-39.42-52.44-42.08-.44-1.23,7.34-12.07,15.79-23.32l32.15,25.05-4.68,5.67s12.27,23.25,13,26.28S201.62,455.37,199.44,454.6Z" style="fill:#BA40B3"></path><path d="M200.28,452.07c-8.11-6.68-41.44-32.86-50-38.85-.07-.05-.1,0,0,0,7.9,6.8,41.44,32.71,49.9,38.94C200.35,452.34,200.45,452.21,200.28,452.07Z" style="fill:#263238"></path><path d="M192.87,419c-2.78-3.16-7.15-5.78-11.45-5.41-.17,0-.15.26,0,.3a58.73,58.73,0,0,1,11.12,5.51A.27.27,0,0,0,192.87,419Z" style="fill:#263238"></path><path d="M194.11,422.25c-2.78-3.15-7.15-5.77-11.45-5.4-.17,0-.15.25,0,.3a57.56,57.56,0,0,1,11.12,5.51A.27.27,0,0,0,194.11,422.25Z" style="fill:#263238"></path><path d="M195.35,425.51c-2.78-3.16-7.15-5.77-11.45-5.41-.17,0-.15.26,0,.31a57.89,57.89,0,0,1,11.13,5.5A.27.27,0,0,0,195.35,425.51Z" style="fill:#263238"></path><path d="M196.59,428.77c-2.78-3.16-7.15-5.78-11.45-5.41-.17,0-.15.25,0,.3a57.36,57.36,0,0,1,11.13,5.51A.27.27,0,0,0,196.59,428.77Z" style="fill:#263238"></path><path d="M204.77,416.18c.1-2.76-2.9-3.83-5.15-3.75A22,22,0,0,0,188.77,416a.11.11,0,0,0,0,.18.51.51,0,0,0,.19.81c3.46,1.11,7,2.72,10.73,2.74C201.85,419.68,204.68,418.8,204.77,416.18Zm-10.22,1.36c-1.72-.5-3.4-1.09-5.14-1.53,2.12-.68,4.2-1.45,6.38-1.92a24.36,24.36,0,0,1,3.19-.51c1.65-.12,7,1,3.58,4.13C200.71,419.43,196.59,418.14,194.55,417.54Z" style="fill:#263238"></path><path d="M181.17,408.62c1.78,3.25,4.91,5.6,7.55,8.11a.51.51,0,0,0,.8-.21c.06,0,.14,0,.14-.1a22,22,0,0,0-2.1-11.21c-1-2-3.39-4.14-5.77-2.73S180.12,406.73,181.17,408.62Zm.35-3.47c1.12-4.45,4.65-.34,5.34,1.18a23.18,23.18,0,0,1,1.07,3,63.65,63.65,0,0,1,1.37,6.53c-1.21-1.32-2.53-2.51-3.8-3.78C184,410.6,180.9,407.61,181.52,405.15Z" style="fill:#263238"></path><path d="M249.14,339c-2.24,17-44,65.91-48.86,71.53l-1.1,1.27L164.61,385.2l.4-.51,30.44-39.86s-50.34,29.37-75.52,16c-11.31-6-19.7-16.63-19.7-16.63l32.87-17.53s9.1,2.94,14.91,2.09c20-2.93,65-20,75.6-19.55C237.35,309.82,251.19,323.4,249.14,339Z" style="fill:#455a64"></path><path d="M206.39,330a39.53,39.53,0,0,0-3.15,4c-1.07,1.41-2.16,2.81-3.24,4.22l0,.05c.19-.42.38-.83.58-1.24.67-1.41,1.22-2.86,2-4.2.05-.08-.08-.16-.13-.08-.82,1.33-1.78,2.6-2.48,4-.34.66-.65,1.32-.94,2-.16.38-.33.75-.47,1.13a4.3,4.3,0,0,0-.2.54c-.48.65-1,1.31-1.42,2-1,1.49-1.93,3.06-3,4.53-.05.08.07.15.13.08,1-1.39,2.23-2.68,3.3-4.05s2.11-2.84,3.13-4.29l3-4.26a41.66,41.66,0,0,0,3-4.37C206.5,330,206.43,330,206.39,330Z" style="fill:#263238"></path><path d="M202.72,403.56c-1.89-1.76-3.94-3.39-5.94-5s-4-3.28-6.06-4.9c-4.06-3.25-8.1-6.53-12.2-9.72-2.26-1.76-4.53-3.49-6.87-5.12a.11.11,0,0,0-.13.18c3.84,3.5,7.94,6.69,12,9.93s8.13,6.49,12.25,9.68c2.25,1.74,4.48,3.54,6.84,5.14C202.7,403.79,202.81,403.64,202.72,403.56Z" style="fill:#263238"></path><path d="M88.38,267.19a3,3,0,0,0,2.17,5.32,3.11,3.11,0,0,0,0,1.25,3.25,3.25,0,0,0,3.6,2.49,2.88,2.88,0,0,0,0,1.05,2.95,2.95,0,0,0,5.2,1.16,3,3,0,0,0,3.49,2,2.7,2.7,0,0,0,1.12-.53,2.38,2.38,0,0,0,0,.26,3,3,0,0,0,3.55,2.21,2.92,2.92,0,0,0,2.07-1.75,2.93,2.93,0,0,0,3.33,1.64,3,3,0,0,0,2.18-2.06,3.33,3.33,0,0,0,2.15.23,3.16,3.16,0,0,0,2-1.49,3.24,3.24,0,0,0,5-2.58,3,3,0,0,0,1.16,0,3,3,0,0,0,2.28-3.17,3,3,0,0,0,1.43,0,3.24,3.24,0,0,0,2.45-3.9,3,3,0,0,0-.42-1,1.89,1.89,0,0,0,.52-.06,3,3,0,0,0,2.22-3.54,2.89,2.89,0,0,0-.78-1.41,3.25,3.25,0,0,0,2.15-3.82,3.17,3.17,0,0,0-.87-1.56,3.26,3.26,0,0,0,1.38-3.46,3.2,3.2,0,0,0-1.81-2.21,2.87,2.87,0,0,0,.45-2.34,2.93,2.93,0,0,0-1.46-1.93,3.24,3.24,0,0,0-2.24-5.32,2.92,2.92,0,0,0,0-1.41,3,3,0,0,0-3.16-2.28,3,3,0,0,0,0-1.4,3.26,3.26,0,0,0-3.9-2.44,2.62,2.62,0,0,0-.71.27,3,3,0,0,0-.08-.52,3.26,3.26,0,0,0-3.9-2.44,2.65,2.65,0,0,0-.76.28,3.23,3.23,0,0,0-.07-.92,3.27,3.27,0,0,0-3.92-2.44,3.22,3.22,0,0,0-2.07,1.53,3.23,3.23,0,0,0-5.06.46,3,3,0,0,0-5.41.46,3,3,0,0,0-4.72,2.06,3.21,3.21,0,0,0-2.59-.5A3.26,3.26,0,0,0,92,236.58a3,3,0,0,0-1.08,0,3,3,0,0,0-2.21,3.55,2.83,2.83,0,0,0,.42,1l-.19,0a3.26,3.26,0,0,0-2.44,3.91,2.84,2.84,0,0,0,.35.88A2.65,2.65,0,0,0,86,246a3,3,0,0,0-2.21,3.55,2.92,2.92,0,0,0,1.33,1.85,2.95,2.95,0,0,0,.38,4.69,3.25,3.25,0,0,0,1.25,6.05,2.9,2.9,0,0,0-.8,2.75A3,3,0,0,0,88.38,267.19Z" style="fill:#263238"></path><path d="M115.64,292.58c6.15,8.83,27.25,31.76,41.84,35.09,8,1.83,46.89,7.26,52.21,2.42,6.24-5.67,3.35-27.06-1.61-27.26-15.13-.59-43.13,2.37-50.13.83-3.16-.7-19.93-11.52-37.84-20.17C113.34,280.22,111.67,286.88,115.64,292.58Z" style="fill: rgb(247, 169, 160);"></path><path d="M199.84,301.66l-2.59,32s-35.25-.56-45.89-6.54-28-21.24-34.59-31.85-4.41-16.39,8.53-9.87,30.39,17,32.68,17.55S199.84,301.66,199.84,301.66Z" style="fill:#BA40B3"></path><path d="M192.81,303.88c0-.08-.13-.11-.15,0-.44,2.2-.62,4.46-.87,6.68s-.48,4.61-.68,6.92c-.42,4.6-.9,9.23-1,13.85,0,.2.26.19.29,0,.69-4.54,1.06-9.14,1.49-13.71.21-2.26.41-4.53.57-6.8S192.84,306.19,192.81,303.88Z" style="fill:#263238"></path><path d="M145,296.09a147.16,147.16,0,0,1-11.21,18c-.12-.12-.25-.23-.37-.33a146.93,146.93,0,0,0,11.14-17.9C144.72,295.92,144.87,296,145,296.09Z" style="fill:#fff"></path><path d="M149.21,298.43a143.21,143.21,0,0,1-11.6,18.9l-.38-.32a144,144,0,0,0,11.55-18.82Z" style="fill:#fff"></path><path d="M166,331.2c-6-.95-11.46-2.26-14.66-4.06-10.64-6-28-21.24-34.59-31.85-5.06-8.1-5-13.39,1.13-12.53Z" style="fill:#020100;opacity:0.1"></path><path d="M84.45,351.89c1.93.63,56.89-15.27,56.89-15.27l-6.49-19.08s3.2-6.14,1.72-12c-2-7.89-16.59-20.85-17.73-21.61-4.61-3.05-8.92-3-12.74-1C90.21,291.36,84.45,351.89,84.45,351.89Z" style="fill:#BA40B3"></path><path d="M133.83,299.93c-14.22,7-33.85,9.62-42.09,10.46,0-.17.09-.34.14-.51,8.3-.87,27.62-3.51,41.66-10.37Z" style="fill:#fff"></path><path d="M136,303.85c-15.1,8.24-37.93,11-45.57,11.74a4.87,4.87,0,0,1,.12-.52c7.77-.75,30.33-3.53,45.24-11.68C135.88,303.55,136,303.7,136,303.85Z" style="fill:#fff"></path><path d="M126.38,290.76c1.41,1.65,2.93,3.21,4.39,4.82-.68-1.2-1.36-2.4-2.08-3.58a0,0,0,1,1,0,0,26.67,26.67,0,0,1,2.79,4.44,36.62,36.62,0,0,1,3,3.87,17.41,17.41,0,0,1,2.5,5.32,14.56,14.56,0,0,1,.16,5.88,37.62,37.62,0,0,1-1.85,6.58c-.1.28-.51.1-.43-.18,1-3.72,2.2-7.66,1.38-11.54s-3.23-7.1-5.57-10.16a54.13,54.13,0,0,0-4.47-5.33C126.19,290.78,126.31,290.68,126.38,290.76Z" style="fill:#263238"></path><path d="M98.92,296.21c-4.42,25.06-.83,44,3.43,46.31,11.46,6.26,33.57-4.78,41.34-7.3,3.14-1,.12-27.08-3.34-26.37-8.52,1.73-23.74,10.58-24.17,10.54-.85-.09-1.84-6.49-6.22-25.14C106.41,279.17,100.73,286,98.92,296.21Z" style="fill: rgb(247, 169, 160);"></path><path d="M137.1,309.73s16.11-6.74,29.14-6.14c4.42.2,22.35,5.84,21.17,10.23-1.07,4-15.93-2.51-15.93-2.51s15.57,5.21,13.41,9.75-18-5-18-5,15.87,5.71,12.9,10c-2.25,3.27-17.06-4.57-17.06-4.57s13.62,5,11.45,8.46c-2.39,3.83-16.52-2.55-16.52-2.55-7,7.88-13.54,8.77-18.27,8.85C138.26,336.3,137.1,309.73,137.1,309.73Z" style="fill: rgb(247, 169, 160);"></path><path d="M166.21,309.16c1.85.55,3.73,1.09,5.53,1.79s3.57,1.48,5.29,2.36a33.7,33.7,0,0,1,6.38,4c-3.7-2.55-10.09-5.19-11.89-5.9s-3.55-1.5-5.34-2.21C166.14,309.21,166.17,309.15,166.21,309.16Z" style="fill:#263238"></path><path d="M163.53,315.6c2.34.8,4.68,1.51,7,2.41s4.38,1.95,6.6,3c.17.09.07.15-.1.08-2.26-1-4.42-1.68-6.7-2.62s-4.5-2-6.8-2.82C163.48,315.64,163.5,315.59,163.53,315.6Z" style="fill:#263238"></path><path d="M160.24,320.71a54.7,54.7,0,0,1,10.39,4.51c.17.08,0,.15-.14.07-3.43-1.56-6.11-2.81-10.28-4.45C160.14,320.81,160.17,320.69,160.24,320.71Z" style="fill:#263238"></path><path d="M133.93,309.82,147.11,338s-40.9,11.94-46.45,4.76S95.5,313,98.1,297.37s9.64-15.92,12.71-1.8,4.89,23,5.45,23S133.93,309.82,133.93,309.82Z" style="fill:#BA40B3"></path><path d="M114.28,311.5a114.54,114.54,0,0,1-18,9.7v-.54A113.55,113.55,0,0,0,114.16,311C114.21,311.16,114.24,311.33,114.28,311.5Z" style="fill:#fff"></path><path d="M115.44,316.37a115.84,115.84,0,0,1-19,10.15l0-.54a114.22,114.22,0,0,0,18.85-10.12C115.35,316,115.4,316.21,115.44,316.37Z" style="fill:#fff"></path><path d="M128.59,313.61c0-.07-.17,0-.14.05.74,2.12,1.72,4.16,2.63,6.21s1.92,4.22,2.91,6.31c2,4.18,3.88,8.42,6.09,12.48a.15.15,0,0,0,.26-.14c-1.7-4.26-3.71-8.42-5.64-12.58-1-2.06-1.93-4.12-2.94-6.16S129.78,315.58,128.59,313.61Z" style="fill:#263238"></path><path d="M125.5,343.18a18.2,18.2,0,0,0-3.43.57c-1.18.21-2.36.4-3.55.56a67.38,67.38,0,0,1-7,.59c-2.28.06-7.93-.28-9.67-1.85a11,11,0,0,1-3-5.09,75.5,75.5,0,0,1-1.4-8A104.12,104.12,0,0,1,97,312.71c.07-1.6.17-3.19.28-4.79s.31-3.25.37-4.88a.06.06,0,0,0-.11,0,57.87,57.87,0,0,0-1.08,7.88c-.1-1.65-.3-3.29-.33-4.94,0-.1-.15-.09-.15,0,0,1.74-.08,3.47,0,5.21,0,1,.14,1.95.25,2.92q-.21,3.31-.18,6.63a68.05,68.05,0,0,0,2,17.3c.68,2.46,1.72,4.81,4,6.12a14.42,14.42,0,0,0,5.38,1.41,44.78,44.78,0,0,0,11.78-.75c1.08-.2,2.17-.43,3.25-.67a13.18,13.18,0,0,0,3.1-.85A.06.06,0,0,0,125.5,343.18Z" style="fill:#263238"></path><polygon points="134.45 310.04 134.45 310.04 134.45 310.04 134.45 310.04" style="fill:#263238"></polygon><path d="M133.87,309.29c-3,1.5-6,3-9,4.55l-4.44,2.27c-1.42.74-4.13,2.2-4.13,2.2,0-.68-.56-2.65-.84-3.92s-.64-2.76-1-4.14c-.09-.35-.19-.71-.29-1.07l-.18-2c-.1-1.06-.19-2.15-.36-3.21,0,0-.05,0-.06,0a15.44,15.44,0,0,0,0,3q-.69-2.49-1.42-5a0,0,0,0,0-.09,0c.54,2.79,1.11,5.58,1.75,8.35.31,1.35.65,2.68,1,4a42.48,42.48,0,0,0,1.2,4.28,46.24,46.24,0,0,0,4.5-2q2.31-1.1,4.6-2.25c2.95-1.48,5.93-3,8.79-4.66,0,0,.44.93.47,1s.17-.08.14-.21A5.37,5.37,0,0,0,133.87,309.29Z" style="fill:#263238"></path><polygon points="134.45 310.04 134.45 310.04 134.45 310.05 134.45 310.04" style="fill:#263238"></polygon><rect x="136.01" y="329.96" width="58.31" height="2.62" style="fill:#c7c7c7"></rect><polygon points="148.48 329.96 146.49 332.58 194.32 332.58 194.32 329.96 148.48 329.96" style="fill:#a6a6a6"></polygon><polygon points="150.98 332.57 207.81 332.57 212.54 293.98 155.71 293.98 150.98 332.57" style="fill:#c7c7c7"></polygon><path d="M178.3,313.28a3.39,3.39,0,0,0,3.4,3.46,3.54,3.54,0,0,0,3.52-3.46,3.39,3.39,0,0,0-3.4-3.46A3.53,3.53,0,0,0,178.3,313.28Z" style="fill:#fff"></path><path d="M212.08,297.71c2.14,3.31,7.42,7.17,8.15,10a3.35,3.35,0,0,1-1.38,3.76s3.06,1.06,3.3,3.74c.12,1.38-2,2.78-2,2.78a4,4,0,0,1,2.48,3.36c0,1.91-2.06,3-2.06,3s1.89,2,1.32,4c-1.16,4-17.43,6.13-20.73.47-1.55-2.64,2.46-2.95,2.46-2.95s-5.87-.95-6.39-4.29,4.69-3.43,4.69-3.43-5.67-1-5.87-4.48c-.21-3.67,5-2.86,5-2.86s-3.94-2-3.47-4.71c.76-4.5,10,.29,13.5-1Z" style="fill: rgb(247, 169, 160);"></path><path d="M220.28,324.61a0,0,0,0,1,0,.09,28.45,28.45,0,0,1-16.89,1.21c-.18,0-.18-.35,0-.34A58,58,0,0,0,220.28,324.61Z" style="fill:#263238"></path><path d="M220.25,318c.07,0,.09.09,0,.11a26.59,26.59,0,0,1-18.5.18c-.21-.08-.31-.36-.07-.28C205.84,319.31,215.07,319.17,220.25,318Z" style="fill:#263238"></path><path d="M200.72,310.5c5.87,2,11.82,2,17.91,1.08.08,0,.09.1,0,.13-2.86,1.26-6.81,1.44-9.89,1.33a16.46,16.46,0,0,1-8.13-2.34C200.55,310.64,200.59,310.45,200.72,310.5Z" style="fill:#263238"></path><path d="M103.45,284.88s9.72,8.24,15.9,6.73,2.39-7.78,2.39-7.78-5.64-3.44-11.67-2.65A10.47,10.47,0,0,0,103.45,284.88Z" style="fill: rgb(247, 169, 160);"></path><path d="M108.45,283.4c.22,1,4.87,7.51,9.41,7.37,1.48,0,1.57-8.14,1.57-8.14l.14-.6,2-8.34-11.15-7.3S108.36,283,108.45,283.4Z" style="fill: rgb(247, 169, 160);"></path><path d="M121.56,273.69l-2,8.34a17.24,17.24,0,0,1-9.84-10c.34-2.87.63-5.26.67-5.61a.18.18,0,0,0,0-.05l1.41.85Z" style="fill:#263238"></path><path d="M133.52,261.58c.31,15.05-8.67,16.94-11.91,17-3,.06-13-.12-14.85-15.05s5-19.84,11.76-20.33S133.21,246.54,133.52,261.58Z" style="fill: rgb(247, 169, 160);"></path><path d="M131.2,259.18a8.8,8.8,0,0,1-1-.26,1.68,1.68,0,0,1-1-.47.53.53,0,0,1,0-.65,1.33,1.33,0,0,1,1.32-.24,1.88,1.88,0,0,1,1.19.75A.56.56,0,0,1,131.2,259.18Z" style="fill:#263238"></path><path d="M121,260c.35,0,.68-.11,1-.17a1.67,1.67,0,0,0,1-.37.53.53,0,0,0,0-.65,1.32,1.32,0,0,0-1.29-.37,1.92,1.92,0,0,0-1.26.63A.57.57,0,0,0,121,260Z" style="fill:#263238"></path><path d="M123,262.3s-.08.05-.08.09c0,1-.16,2.2-1.1,2.52,0,0,0,.06,0,0C122.93,264.83,123.14,263.27,123,262.3Z" style="fill:#263238"></path><path d="M122.08,261.21c-1.64-.17-1.86,3.13-.33,3.29S123.46,261.35,122.08,261.21Z" style="fill:#263238"></path><path d="M121.42,261.34c-.3.17-.6.48-1,.49s-.69-.35-.93-.7c0,0-.06,0-.06,0,0,.64.15,1.3.82,1.44s1.1-.41,1.3-1C121.63,261.45,121.54,261.27,121.42,261.34Z" style="fill:#263238"></path><path d="M128.91,262.35s.08,0,.07.09c-.1,1,0,2.21.85,2.61,0,0,0,.07,0,.06C128.7,264.87,128.65,263.3,128.91,262.35Z" style="fill:#263238"></path><path d="M129.9,261.35c1.66,0,1.54,3.3,0,3.3S128.52,261.35,129.9,261.35Z" style="fill:#263238"></path><path d="M130.58,261.59c.26.18.51.51.82.54s.64-.31.88-.65c0,0,.05,0,.05,0,0,.63-.23,1.28-.84,1.38s-1-.46-1.08-1.1C130.39,261.69,130.48,261.51,130.58,261.59Z" style="fill:#263238"></path><path d="M122.25,271.35c.21.27.4.63.77.71a2.72,2.72,0,0,0,1.13-.1s.06,0,0,.05a1.38,1.38,0,0,1-1.36.38,1.12,1.12,0,0,1-.68-1C122.14,271.32,122.22,271.31,122.25,271.35Z" style="fill:#263238"></path><path d="M126.92,267.69s.09,1.54,0,2.26c0,.07-.18.08-.43.08,0,0,0,0,0,0a3.43,3.43,0,0,1-3.21-1.55c0-.08,0-.14.11-.09a5.2,5.2,0,0,0,3,1.15c.07-.2-.23-2.64-.12-2.64a6.37,6.37,0,0,1,1.6.5c-.08-3.21-.69-6.39-.72-9.6a.1.1,0,0,1,.19,0,52.29,52.29,0,0,1,1.22,10.31C128.64,268.49,127.2,267.83,126.92,267.69Z" style="fill:#263238"></path><path d="M126.51,269.74a4.15,4.15,0,0,1-1.66,1.33,1.87,1.87,0,0,1-1.15.09c-.83-.2-.86-1-.72-1.62a4.29,4.29,0,0,1,.35-1A5.46,5.46,0,0,0,126.51,269.74Z" style="fill:#263238"></path><path d="M124.85,271.07a1.87,1.87,0,0,1-1.15.09c-.83-.2-.86-1-.72-1.62A2,2,0,0,1,124.85,271.07Z" style="fill:#ff9cbd"></path><path d="M107.93,262.88c1.59-.1,5.72-4.5,5.82-12.2,0,0-.56,6.91-1.08,7.92s2.31-2.47,2.48-8.68a25.16,25.16,0,0,0,6.38,3.28c2.94.81,4.73.78,4.94.56s-4.11-1.55-5.28-2.89c0,0,7.81,3.59,11.4,3.85.42,0,.31-7.36-5.27-11s-13.78-.81-16.14,1.48c0,0-1.67.76-4.67,4.88S106.21,263,107.93,262.88Z" style="fill:#263238"></path><path d="M107.63,266.47c.76,2.1-5.17-7.39-5.3-8.94s2-9.43,8.09-13.35c5.11-3.29,12-2.15,13.17-1.94a9.46,9.46,0,0,1,3.73,1.51s-9-1.52-16.14,1.48C107.74,246.68,104.77,258.63,107.63,266.47Z" style="fill:#BA40B3"></path><path d="M107.58,243.8s1.19-4.77,5.08-6.51c0,0,1.12,4.05.12,5.83-.5.88-3.58,2.16-4.11,1.75A7.5,7.5,0,0,1,107.58,243.8Z" style="fill:#BA40B3"></path><path d="M107.58,243.8a8.43,8.43,0,0,0,1.08,1.07.19.19,0,0,0,.09,0,.16.16,0,0,0,.11,0H109a4.66,4.66,0,0,0,1.77-.47,9.65,9.65,0,0,0-1-1.6,2.84,2.84,0,0,0-1.56-.72A10.53,10.53,0,0,0,107.58,243.8Z" style="fill:#050400;opacity:0.1"></path><path d="M106.77,244.66s-5.91.93-8.22,3A8,8,0,0,0,104,250c1.36-.08,4.33-3.55,3.92-4.15A6.1,6.1,0,0,0,106.77,244.66Z" style="fill:#BA40B3"></path><path d="M105.44,244.91a3.4,3.4,0,0,0,.69,1.83,2.91,2.91,0,0,0,1,.69c.56-.73.91-1.39.75-1.62a5.91,5.91,0,0,0-1.15-1.15S106.24,244.74,105.44,244.91Z" style="fill:#050400;opacity:0.1"></path><path d="M106.59,246.12a1.94,1.94,0,1,0,0-2.74A1.93,1.93,0,0,0,106.59,246.12Z" style="fill:#BA40B3"></path><path d="M109.18,264.63s-3-4.9-5.18-3.87-.18,8,2.25,9.08a2.56,2.56,0,0,0,3.5-1.14Z" style="fill: rgb(247, 169, 160);"></path><path d="M104.63,262.74s0,.05,0,.06c1.71.83,2.52,2.51,3.06,4.24a1.4,1.4,0,0,0-2.07-.52s0,.1,0,.09a1.57,1.57,0,0,1,1.68.66,7,7,0,0,1,.73,1.45c.07.16.36.09.31-.09v0C108.54,266.36,107,263.12,104.63,262.74Z" style="fill:#263238"></path><path d="M324.52,410.44c-.79,2.13-39.4,50.13-42,51-1,.34-8.32-4.87-17-11.43-1.87-1.41-3.8-2.88-5.74-4.39C247.13,435.88,234,425.22,234,425.22L259.68,393l25.12,21.31,5.52,4.67s23-11.76,26-12.44S325.31,408.31,324.52,410.44Z" style="fill: rgb(247, 169, 160);"></path><path d="M253,440.4c2.21,1.73,4.5,3.5,6.75,5.25,2,1.51,3.87,3,5.73,4.4,8.67,6.55,16,11.76,17,11.41,2.63-.9,41.24-48.89,42-51s-5.23-4.52-8.21-3.86-26,12.45-26,12.45l-5.52-4.68-5.6-4.76Z" style="fill:#ebebeb"></path><path d="M325,410.22c-.81,2.16-40.31,50.8-43,51.7-1.23.42-11.93-7.55-23-16.19L284.56,414l5.59,4.78s23.46-11.86,26.5-12.53S325.8,408.06,325,410.22Z" style="fill:#BA40B3"></path><path d="M322.47,409.34c-6.82,8-33.58,40.86-39.71,49.28-.05.07,0,.1.05,0,6.93-7.77,33.42-40.86,39.8-49.22C322.74,409.27,322.62,409.17,322.47,409.34Z" style="fill:#263238"></path><path d="M289.28,416.17c-3.21,2.72-5.9,7.05-5.61,11.36,0,.16.25.14.3,0a59.09,59.09,0,0,1,5.7-11A.26.26,0,0,0,289.28,416.17Z" style="fill:#263238"></path><path d="M292.55,415c-3.2,2.72-5.9,7.05-5.6,11.35,0,.17.25.15.3,0a57.92,57.92,0,0,1,5.7-11A.27.27,0,0,0,292.55,415Z" style="fill:#263238"></path><path d="M295.83,413.81c-3.21,2.72-5.9,7-5.6,11.35,0,.17.24.15.3,0a58.15,58.15,0,0,1,5.69-11A.26.26,0,0,0,295.83,413.81Z" style="fill:#263238"></path><path d="M299.11,412.62c-3.21,2.73-5.9,7.05-5.61,11.36,0,.17.25.15.3,0a57.9,57.9,0,0,1,5.7-11A.27.27,0,0,0,299.11,412.62Z" style="fill:#263238"></path><path d="M286.67,404.22c-2.76-.15-3.89,2.83-3.85,5.09a22.05,22.05,0,0,0,3.34,10.91.1.1,0,0,0,.17,0,.51.51,0,0,0,.81-.17c1.17-3.45,2.85-7,2.93-10.69C290.12,407.21,289.28,404.36,286.67,404.22Zm1.18,10.25c-.53,1.71-1.15,3.38-1.62,5.11a64.32,64.32,0,0,1-1.81-6.42A24.27,24.27,0,0,1,284,410c-.09-1.66,1.13-6.94,4.19-3.51C289.84,408.34,288.49,412.43,287.85,414.47Z" style="fill:#263238"></path><path d="M278.7,427.69c3.27-1.73,5.68-4.82,8.24-7.41a.51.51,0,0,0-.2-.8c0-.07,0-.14-.1-.15a22.12,22.12,0,0,0-11.25,1.91c-2,1-4.19,3.32-2.82,5.72S276.79,428.7,278.7,427.69Zm-3.47-.41c-4.43-1.2-.26-4.66,1.27-5.32a23.36,23.36,0,0,1,3.06-1,66.17,66.17,0,0,1,6.54-1.26c-1.33,1.2-2.55,2.5-3.84,3.74C280.73,424.9,277.68,427.94,275.23,427.28Z" style="fill:#263238"></path><path d="M283.44,409.42,256.35,446l-91.43-63.45-8.82-6.12s-2.49,1.68-6.25,3.76c-5.22,2.89-12.87,6.54-19.64,7.54-11.35,1.68-30.3,1.49-39.86-11.3-8.06-10.77-3.69-24.82-3.69-24.82l12.47-5.36s29.49-24.57,48.59-25.31c8.12-.32,19.93,5.83,30.88,12.25S283.44,409.42,283.44,409.42Z" style="fill:#455a64"></path><path d="M156.1,376.41s-2.49,1.68-6.25,3.76c-6.64-7.95-20.71-22.4-21.14-22.91Z" style="fill:#263238"></path><path d="M109.93,338c-1.76,1.22-3.46,2.52-5.2,3.78s-3.48,2.4-5.11,3.75-3.22,2.84-4.78,4.31c-.75.72-1.49,1.44-2.22,2.18a19.2,19.2,0,0,0-2.12,2.3c-.06.08,0,.17.13.12A25.36,25.36,0,0,0,93,352.53l2.46-2.1c1.59-1.34,3.2-2.65,4.78-4s3-2.81,4.59-4.17,3.42-2.81,5.15-4.18C110,338,110,338,109.93,338Z" style="fill:#263238"></path><path d="M277.08,408.11c-1.76,1.9-3.38,3.94-5,5.94s-3.28,4-4.91,6.06c-3.25,4.06-6.53,8.1-9.72,12.2-1.75,2.26-3.49,4.53-5.12,6.88-.07.1.1.22.18.13,3.5-3.85,6.69-7.95,9.94-12s6.48-8.14,9.67-12.25c1.74-2.25,3.54-4.49,5.14-6.84C277.31,408.13,277.16,408,277.08,408.11Z" style="fill:#263238"></path><path d="M202.05,408.48c-4.55-3.58-9.27-7-14-10.33s-9.39-6.7-14.15-9.95c-1.37-.93-2.75-1.84-4.12-2.76s-2.81-1.76-4.16-2.7c-.08-.06-.15.07-.07.13,1.24.88,2.41,1.88,3.62,2.8s2.31,1.77,3.48,2.63c2.29,1.69,4.6,3.35,6.9,5q7,5.07,14.13,10c2.7,1.85,5.39,3.71,8.14,5.47C202,408.86,202.2,408.6,202.05,408.48Z" style="fill:#263238"></path><path d="M231.29,370.76c-4.21-3.48-8.71-6.62-13.12-9.84s-8.89-6.54-13.36-9.78l-13.32-9.62c-4.3-3.11-8.58-6.27-13.13-9q-3.74-2.26-7.66-4.16a49.47,49.47,0,0,0-7.92-3.23c-.08,0-.12.09-.05.13,2.24,1.25,4.59,2.31,6.86,3.51s4.45,2.45,6.62,3.77c4.51,2.73,8.77,5.84,13,8.92,8.89,6.39,17.76,12.81,26.71,19.11,5,3.53,9.92,7.25,15.12,10.49C231.25,371.13,231.44,370.88,231.29,370.76Z" style="fill:#263238"></path></g></svg>