<svg xmlns="http://www.w3.org/2000/svg" viewBox="0 0 750 500"><g id="freepik--background-simple--inject-3"><path d="M661.34,427.12c33.51-52.56,42.11-118.88,32.53-179.7a236.74,236.74,0,0,0-8-34.21C662.33,138.69,601.94,79,530.47,47.59c-68.19-30-154.39-44.82-219,1.35-42.54,30.4-66.63,79.12-105.58,113.22-19.36,17-40.55,22.45-63.59,32.59C86.17,219.46,39.18,267.11,35.32,330a167.49,167.49,0,0,0,23.26,97.15Z" style="fill:#A855A6"></path><path d="M661.34,427.12c33.51-52.56,42.11-118.88,32.53-179.7a236.74,236.74,0,0,0-8-34.21C662.33,138.69,601.94,79,530.47,47.59c-68.19-30-154.39-44.82-219,1.35-42.54,30.4-66.63,79.12-105.58,113.22-19.36,17-40.55,22.45-63.59,32.59C86.17,219.46,39.18,267.11,35.32,330a167.49,167.49,0,0,0,23.26,97.15Z" style="fill:#fff;opacity:0.8"></path></g><g id="freepik--House--inject-3"><rect x="160.74" y="319.61" width="416.16" height="107.07" style="fill:#fff"></rect><rect x="160.74" y="319.61" width="416.16" height="19.06" style="opacity:0.31"></rect><rect x="160.74" y="319.61" width="416.16" height="107.07" style="fill:none;stroke:#263238;stroke-linecap:round;stroke-linejoin:round"></rect><rect x="156.48" y="319.61" width="424.69" height="4.9" style="fill:#fff;stroke:#263238;stroke-linecap:round;stroke-linejoin:round"></rect><polygon points="582.29 319.69 151.93 319.69 187.79 196.73 546.42 196.73 582.29 319.69" style="fill:#263238;stroke:#263238;stroke-linecap:round;stroke-linejoin:round"></polygon><polygon points="238.39 300.26 173.68 300.26 198.31 208.91 255.1 209.15 238.39 300.26" style="fill:#A855A6;stroke:#fff;stroke-miterlimit:10"></polygon><line x1="212.29" y1="209.09" x2="189.69" y2="300.1" style="fill:#A855A6;stroke:#fff;stroke-miterlimit:10"></line><line x1="226.97" y1="209.15" x2="206.41" y2="300.1" style="fill:#A855A6;stroke:#fff;stroke-miterlimit:10"></line><line x1="241.63" y1="209.21" x2="223.1" y2="300.1" style="fill:#A855A6;stroke:#fff;stroke-miterlimit:10"></line><line x1="194.99" y1="221.58" x2="253.21" y2="221.79" style="fill:#A855A6;stroke:#fff;stroke-miterlimit:10"></line><line x1="191.08" y1="236.09" x2="250.56" y2="236.26" style="fill:#A855A6;stroke:#fff;stroke-miterlimit:10"></line><line x1="186.99" y1="251.24" x2="247.8" y2="251.37" style="fill:#A855A6;stroke:#fff;stroke-miterlimit:10"></line><line x1="182.73" y1="267.07" x2="244.92" y2="267.17" style="fill:#A855A6;stroke:#fff;stroke-miterlimit:10"></line><line x1="178.26" y1="283.64" x2="241.9" y2="283.69" style="fill:#A855A6;stroke:#fff;stroke-miterlimit:10"></line><polygon points="313.98 300.26 249.72 300.26 265.05 209.19 321.49 209.42 313.98 300.26" style="fill:#A855A6;stroke:#fff;stroke-miterlimit:10"></polygon><line x1="278.96" y1="209.37" x2="265.6" y2="300.1" style="fill:#A855A6;stroke:#fff;stroke-miterlimit:10"></line><line x1="293.55" y1="209.43" x2="282.21" y2="300.1" style="fill:#A855A6;stroke:#fff;stroke-miterlimit:10"></line><line x1="308.12" y1="209.49" x2="298.79" y2="300.1" style="fill:#A855A6;stroke:#fff;stroke-miterlimit:10"></line><line x1="263.01" y1="221.82" x2="320.88" y2="222.03" style="fill:#A855A6;stroke:#fff;stroke-miterlimit:10"></line><line x1="260.58" y1="236.29" x2="319.69" y2="236.46" style="fill:#A855A6;stroke:#fff;stroke-miterlimit:10"></line><line x1="258.04" y1="251.4" x2="318.45" y2="251.53" style="fill:#A855A6;stroke:#fff;stroke-miterlimit:10"></line><line x1="255.39" y1="267.18" x2="317.16" y2="267.28" style="fill:#A855A6;stroke:#fff;stroke-miterlimit:10"></line><line x1="252.61" y1="283.7" x2="315.81" y2="283.75" style="fill:#A855A6;stroke:#fff;stroke-miterlimit:10"></line><polygon points="494.77 300.26 559.47 300.26 534.84 208.91 478.06 209.15 494.77 300.26" style="fill:#A855A6;stroke:#fff;stroke-miterlimit:10"></polygon><line x1="520.86" y1="209.09" x2="543.46" y2="300.1" style="fill:#A855A6;stroke:#fff;stroke-miterlimit:10"></line><line x1="506.18" y1="209.15" x2="526.74" y2="300.1" style="fill:#A855A6;stroke:#fff;stroke-miterlimit:10"></line><line x1="491.53" y1="209.21" x2="510.05" y2="300.1" style="fill:#A855A6;stroke:#fff;stroke-miterlimit:10"></line><line x1="538.17" y1="221.58" x2="479.94" y2="221.79" style="fill:#A855A6;stroke:#fff;stroke-miterlimit:10"></line><line x1="542.08" y1="236.09" x2="482.59" y2="236.26" style="fill:#A855A6;stroke:#fff;stroke-miterlimit:10"></line><line x1="546.16" y1="251.24" x2="485.35" y2="251.37" style="fill:#A855A6;stroke:#fff;stroke-miterlimit:10"></line><line x1="550.43" y1="267.07" x2="488.24" y2="267.17" style="fill:#A855A6;stroke:#fff;stroke-miterlimit:10"></line><line x1="554.89" y1="283.64" x2="491.26" y2="283.69" style="fill:#A855A6;stroke:#fff;stroke-miterlimit:10"></line><polygon points="419.17 300.26 483.43 300.26 468.1 209.19 411.66 209.42 419.17 300.26" style="fill:#A855A6;stroke:#fff;stroke-miterlimit:10"></polygon><line x1="454.2" y1="209.37" x2="467.55" y2="300.1" style="fill:#A855A6;stroke:#fff;stroke-miterlimit:10"></line><line x1="439.61" y1="209.43" x2="450.95" y2="300.1" style="fill:#A855A6;stroke:#fff;stroke-miterlimit:10"></line><line x1="425.04" y1="209.49" x2="434.37" y2="300.1" style="fill:#A855A6;stroke:#fff;stroke-miterlimit:10"></line><line x1="470.14" y1="221.82" x2="412.28" y2="222.03" style="fill:#A855A6;stroke:#fff;stroke-miterlimit:10"></line><line x1="472.57" y1="236.29" x2="413.46" y2="236.46" style="fill:#A855A6;stroke:#fff;stroke-miterlimit:10"></line><line x1="475.11" y1="251.4" x2="414.7" y2="251.53" style="fill:#A855A6;stroke:#fff;stroke-miterlimit:10"></line><line x1="477.77" y1="267.18" x2="415.99" y2="267.28" style="fill:#A855A6;stroke:#fff;stroke-miterlimit:10"></line><line x1="480.54" y1="283.7" x2="417.34" y2="283.75" style="fill:#A855A6;stroke:#fff;stroke-miterlimit:10"></line><rect x="336.77" y="338.66" width="8.04" height="13.93" style="fill:#ccc"></rect><rect x="336.77" y="355.52" width="8.04" height="12.47" style="fill:#ccc"></rect><rect x="336.77" y="370.91" width="8.04" height="12.47" style="fill:#ccc"></rect><rect x="336.77" y="386.31" width="8.04" height="15.99" style="fill:#ccc"></rect><rect x="325.03" y="386.31" width="9.69" height="15.99" style="fill:#ccc"></rect><rect x="325.03" y="370.91" width="9.69" height="12.47" style="fill:#ccc"></rect><rect x="325.03" y="355.52" width="9.69" height="12.47" style="fill:#ccc"></rect><rect x="325.03" y="338.66" width="9.69" height="13.93" style="fill:#ccc"></rect><rect x="403.54" y="338.66" width="8.05" height="13.93" style="fill:#ccc"></rect><rect x="403.54" y="355.52" width="8.05" height="12.47" style="fill:#ccc"></rect><rect x="403.54" y="370.91" width="8.05" height="12.47" style="fill:#ccc"></rect><rect x="403.54" y="386.31" width="8.05" height="15.99" style="fill:#ccc"></rect><rect x="391.8" y="386.31" width="9.69" height="15.99" style="fill:#ccc"></rect><rect x="391.8" y="370.91" width="9.69" height="12.47" style="fill:#ccc"></rect><rect x="391.8" y="355.52" width="9.69" height="12.47" style="fill:#ccc"></rect><rect x="391.8" y="338.66" width="9.69" height="13.93" style="fill:#ccc"></rect><rect x="347.61" y="337.98" width="41.75" height="79.98" style="fill:#A855A6;stroke:#263238;stroke-linecap:round;stroke-linejoin:round"></rect><rect x="353.67" y="342.7" width="30.3" height="39.06" style="fill:none;stroke:#263238;stroke-linecap:round;stroke-linejoin:round;stroke-width:0.5px"></rect><rect x="353.67" y="396.57" width="30.3" height="16.16" style="fill:none;stroke:#263238;stroke-linecap:round;stroke-linejoin:round;stroke-width:0.5px"></rect><rect x="353.67" y="386.47" width="30.3" height="6.06" style="fill:none;stroke:#263238;stroke-linecap:round;stroke-linejoin:round;stroke-width:0.5px"></rect><rect x="348.67" y="376.93" width="3.79" height="12.8" style="fill:#263238"></rect><circle cx="369.16" cy="325.84" r="7.02" style="fill:none;stroke:#263238;stroke-linecap:round;stroke-linejoin:round"></circle><polygon points="371.9 338.67 366.4 338.67 365.33 331.89 372.97 331.89 371.9 338.67" style="fill:#fff;stroke:#263238;stroke-linecap:round;stroke-linejoin:round;stroke-width:2px"></polygon><polygon points="371.36 326.51 366.94 326.51 364.63 331.88 373.66 331.88 371.36 326.51" style="fill:#fff;stroke:#263238;stroke-linecap:round;stroke-linejoin:round"></polygon><rect x="368.05" y="323.84" width="2.2" height="2.61" style="fill:#263238;stroke:#263238;stroke-linecap:round;stroke-linejoin:round"></rect><path d="M330.93,327.81l10.75-3.39a85.76,85.76,0,0,1,49.87-.47l13.11,3.86h21.39V302l-59.5-70.45L308.17,302v25.77Z" style="fill:#fff;stroke:#263238;stroke-linecap:round;stroke-linejoin:round"></path><rect x="308.17" y="417.26" width="117.88" height="9.43" style="fill:#263238;stroke:#263238;stroke-linecap:round;stroke-linejoin:round"></rect><line x1="332.05" y1="418.22" x2="332.05" y2="425.6" style="fill:none;stroke:#b0b0b0;stroke-linecap:round;stroke-linejoin:round"></line><line x1="338.15" y1="418.22" x2="338.15" y2="425.6" style="fill:none;stroke:#b0b0b0;stroke-linecap:round;stroke-linejoin:round"></line><line x1="344.24" y1="418.22" x2="344.24" y2="425.6" style="fill:none;stroke:#b0b0b0;stroke-linecap:round;stroke-linejoin:round"></line><line x1="350.34" y1="418.22" x2="350.34" y2="425.6" style="fill:none;stroke:#b0b0b0;stroke-linecap:round;stroke-linejoin:round"></line><line x1="356.44" y1="418.22" x2="356.44" y2="425.6" style="fill:none;stroke:#b0b0b0;stroke-linecap:round;stroke-linejoin:round"></line><line x1="362.54" y1="418.22" x2="362.54" y2="425.6" style="fill:none;stroke:#b0b0b0;stroke-linecap:round;stroke-linejoin:round"></line><line x1="368.63" y1="418.22" x2="368.63" y2="425.6" style="fill:none;stroke:#b0b0b0;stroke-linecap:round;stroke-linejoin:round"></line><line x1="374.73" y1="418.22" x2="374.73" y2="425.6" style="fill:none;stroke:#b0b0b0;stroke-linecap:round;stroke-linejoin:round"></line><line x1="380.83" y1="418.22" x2="380.83" y2="425.6" style="fill:none;stroke:#b0b0b0;stroke-linecap:round;stroke-linejoin:round"></line><line x1="386.93" y1="418.22" x2="386.93" y2="425.6" style="fill:none;stroke:#b0b0b0;stroke-linecap:round;stroke-linejoin:round"></line><line x1="393.03" y1="418.22" x2="393.03" y2="425.6" style="fill:none;stroke:#b0b0b0;stroke-linecap:round;stroke-linejoin:round"></line><line x1="399.12" y1="418.22" x2="399.12" y2="425.6" style="fill:none;stroke:#b0b0b0;stroke-linecap:round;stroke-linejoin:round"></line><line x1="405.22" y1="418.22" x2="405.22" y2="425.6" style="fill:none;stroke:#b0b0b0;stroke-linecap:round;stroke-linejoin:round"></line><polygon points="367.11 222.5 295.05 314.21 329.81 314.21 329.81 305.21 312.17 305.21 367.11 237.46 422.05 305.21 404.51 305.21 404.51 314.21 439.17 314.21 367.11 222.5" style="fill:#fff;stroke:#263238;stroke-linecap:round;stroke-linejoin:round"></polygon><rect x="295.05" y="314.21" width="34.71" height="8.29" style="fill:#fff;stroke:#263238;stroke-linecap:round;stroke-linejoin:round"></rect><rect x="300.78" y="336.05" width="10.31" height="84.68" style="fill:#fff;stroke:#263238;stroke-linecap:round;stroke-linejoin:round"></rect><rect x="300.19" y="332.96" width="11.49" height="3.2" style="fill:#fff;stroke:#263238;stroke-linecap:round;stroke-linejoin:round"></rect><rect x="299.4" y="322.61" width="13.07" height="10.53" style="fill:#fff;stroke:#263238;stroke-linecap:round;stroke-linejoin:round"></rect><rect x="300.19" y="413.07" width="11.49" height="3.2" transform="translate(611.87 829.34) rotate(180)" style="fill:#fff;stroke:#263238;stroke-linecap:round;stroke-linejoin:round"></rect><rect x="299.4" y="416.09" width="13.07" height="10.53" transform="translate(611.87 842.71) rotate(180)" style="fill:#fff;stroke:#263238;stroke-linecap:round;stroke-linejoin:round"></rect><rect x="316.14" y="336.05" width="10.31" height="84.68" style="fill:#fff;stroke:#263238;stroke-linecap:round;stroke-linejoin:round"></rect><rect x="315.56" y="332.96" width="11.49" height="3.2" style="fill:#fff;stroke:#263238;stroke-linecap:round;stroke-linejoin:round"></rect><rect x="314.77" y="322.61" width="13.07" height="10.53" style="fill:#fff;stroke:#263238;stroke-linecap:round;stroke-linejoin:round"></rect><rect x="315.56" y="413.07" width="11.49" height="3.2" transform="translate(642.6 829.34) rotate(180)" style="fill:#fff;stroke:#263238;stroke-linecap:round;stroke-linejoin:round"></rect><rect x="314.77" y="416.09" width="13.07" height="10.53" transform="translate(642.6 842.71) rotate(180)" style="fill:#fff;stroke:#263238;stroke-linecap:round;stroke-linejoin:round"></rect><rect x="404.45" y="314.21" width="34.71" height="8.29" style="fill:#fff;stroke:#263238;stroke-linecap:round;stroke-linejoin:round"></rect><rect x="410.18" y="336.05" width="10.31" height="84.68" style="fill:#fff;stroke:#263238;stroke-linecap:round;stroke-linejoin:round"></rect><rect x="409.59" y="332.96" width="11.49" height="3.2" style="fill:#fff;stroke:#263238;stroke-linecap:round;stroke-linejoin:round"></rect><rect x="408.8" y="322.61" width="13.07" height="10.53" style="fill:#fff;stroke:#263238;stroke-linecap:round;stroke-linejoin:round"></rect><rect x="409.59" y="413.07" width="11.49" height="3.2" transform="translate(830.67 829.34) rotate(180)" style="fill:#fff;stroke:#263238;stroke-linecap:round;stroke-linejoin:round"></rect><rect x="408.8" y="416.09" width="13.07" height="10.53" transform="translate(830.67 842.71) rotate(180)" style="fill:#fff;stroke:#263238;stroke-linecap:round;stroke-linejoin:round"></rect><rect x="425.54" y="336.05" width="10.31" height="84.68" style="fill:#fff;stroke:#263238;stroke-linecap:round;stroke-linejoin:round"></rect><rect x="424.96" y="332.96" width="11.49" height="3.2" style="fill:#fff;stroke:#263238;stroke-linecap:round;stroke-linejoin:round"></rect><rect x="424.16" y="322.61" width="13.07" height="10.53" style="fill:#fff;stroke:#263238;stroke-linecap:round;stroke-linejoin:round"></rect><rect x="424.96" y="413.07" width="11.49" height="3.2" transform="translate(861.4 829.34) rotate(180)" style="fill:#fff;stroke:#263238;stroke-linecap:round;stroke-linejoin:round"></rect><rect x="424.16" y="416.09" width="13.07" height="10.53" transform="translate(861.4 842.71) rotate(180)" style="fill:#fff;stroke:#263238;stroke-linecap:round;stroke-linejoin:round"></rect><rect x="195.35" y="370.91" width="9.9" height="12.47" style="fill:#ccc"></rect><rect x="185.25" y="338.66" width="8.05" height="13.93" style="fill:#ccc"></rect><rect x="185.25" y="355.52" width="8.05" height="12.47" style="fill:#ccc"></rect><rect x="195.35" y="355.52" width="9.9" height="12.47" style="fill:#ccc"></rect><rect x="185.25" y="370.91" width="8.05" height="12.47" style="fill:#ccc"></rect><rect x="195.35" y="338.66" width="9.9" height="13.93" style="fill:#ccc"></rect><rect x="185.25" y="386.31" width="8.05" height="15.99" style="fill:#ccc"></rect><rect x="195.35" y="386.31" width="9.9" height="15.99" style="fill:#ccc"></rect><rect x="173.5" y="386.31" width="9.69" height="15.99" style="fill:#ccc"></rect><rect x="173.5" y="370.91" width="9.69" height="12.47" style="fill:#ccc"></rect><rect x="173.5" y="355.52" width="9.69" height="12.47" style="fill:#ccc"></rect><rect x="173.5" y="338.66" width="9.69" height="13.93" style="fill:#ccc"></rect><rect x="233.38" y="370.91" width="9.9" height="12.47" style="fill:#ccc"></rect><rect x="223.28" y="338.66" width="8.05" height="13.93" style="fill:#ccc"></rect><rect x="223.28" y="355.52" width="8.05" height="12.47" style="fill:#ccc"></rect><rect x="233.38" y="355.52" width="9.9" height="12.47" style="fill:#ccc"></rect><rect x="223.28" y="370.91" width="8.05" height="12.47" style="fill:#ccc"></rect><rect x="233.38" y="338.66" width="9.9" height="13.93" style="fill:#ccc"></rect><rect x="223.28" y="386.31" width="8.05" height="15.99" style="fill:#ccc"></rect><rect x="233.38" y="386.31" width="9.9" height="15.99" style="fill:#ccc"></rect><rect x="211.54" y="386.31" width="9.69" height="15.99" style="fill:#ccc"></rect><rect x="211.54" y="370.91" width="9.69" height="12.47" style="fill:#ccc"></rect><rect x="211.54" y="355.52" width="9.69" height="12.47" style="fill:#ccc"></rect><rect x="211.54" y="338.66" width="9.69" height="13.93" style="fill:#ccc"></rect><rect x="271.42" y="370.91" width="9.9" height="12.47" style="fill:#ccc"></rect><rect x="261.31" y="338.66" width="8.05" height="13.93" style="fill:#ccc"></rect><rect x="261.31" y="355.52" width="8.05" height="12.47" style="fill:#ccc"></rect><rect x="271.42" y="355.52" width="9.9" height="12.47" style="fill:#ccc"></rect><rect x="261.31" y="370.91" width="8.05" height="12.47" style="fill:#ccc"></rect><rect x="271.42" y="338.66" width="9.9" height="13.93" style="fill:#ccc"></rect><rect x="261.31" y="386.31" width="8.05" height="15.99" style="fill:#ccc"></rect><rect x="271.42" y="386.31" width="9.9" height="15.99" style="fill:#ccc"></rect><rect x="249.57" y="386.31" width="9.69" height="15.99" style="fill:#ccc"></rect><rect x="249.57" y="370.91" width="9.69" height="12.47" style="fill:#ccc"></rect><rect x="249.57" y="355.52" width="9.69" height="12.47" style="fill:#ccc"></rect><rect x="249.57" y="338.66" width="9.69" height="13.93" style="fill:#ccc"></rect><rect x="168.49" y="331.92" width="117.17" height="75.42" style="fill:none;stroke:#263238;stroke-linecap:round;stroke-linejoin:round"></rect><rect x="478.51" y="370.91" width="9.9" height="12.47" style="fill:#ccc"></rect><rect x="468.41" y="338.66" width="8.05" height="13.93" style="fill:#ccc"></rect><rect x="468.41" y="355.52" width="8.05" height="12.47" style="fill:#ccc"></rect><rect x="478.51" y="355.52" width="9.9" height="12.47" style="fill:#ccc"></rect><rect x="468.41" y="370.91" width="8.05" height="12.47" style="fill:#ccc"></rect><rect x="478.51" y="338.66" width="9.9" height="13.93" style="fill:#ccc"></rect><rect x="468.41" y="386.31" width="8.05" height="15.99" style="fill:#ccc"></rect><rect x="478.51" y="386.31" width="9.9" height="15.99" style="fill:#ccc"></rect><rect x="456.67" y="386.31" width="9.69" height="15.99" style="fill:#ccc"></rect><rect x="456.67" y="370.91" width="9.69" height="12.47" style="fill:#ccc"></rect><rect x="456.67" y="355.52" width="9.69" height="12.47" style="fill:#ccc"></rect><rect x="456.67" y="338.66" width="9.69" height="13.93" style="fill:#ccc"></rect><rect x="516.54" y="370.91" width="9.9" height="12.47" style="fill:#ccc"></rect><rect x="506.44" y="338.66" width="8.05" height="13.93" style="fill:#ccc"></rect><rect x="506.44" y="355.52" width="8.05" height="12.47" style="fill:#ccc"></rect><rect x="516.54" y="355.52" width="9.9" height="12.47" style="fill:#ccc"></rect><rect x="506.44" y="370.91" width="8.05" height="12.47" style="fill:#ccc"></rect><rect x="516.54" y="338.66" width="9.9" height="13.93" style="fill:#ccc"></rect><rect x="506.44" y="386.31" width="8.05" height="15.99" style="fill:#ccc"></rect><rect x="516.54" y="386.31" width="9.9" height="15.99" style="fill:#ccc"></rect><rect x="494.7" y="386.31" width="9.69" height="15.99" style="fill:#ccc"></rect><rect x="494.7" y="370.91" width="9.69" height="12.47" style="fill:#ccc"></rect><rect x="494.7" y="355.52" width="9.69" height="12.47" style="fill:#ccc"></rect><rect x="494.7" y="338.66" width="9.69" height="13.93" style="fill:#ccc"></rect><rect x="554.58" y="370.91" width="9.9" height="12.47" style="fill:#ccc"></rect><rect x="544.48" y="338.66" width="8.04" height="13.93" style="fill:#ccc"></rect><rect x="544.48" y="355.52" width="8.04" height="12.47" style="fill:#ccc"></rect><rect x="554.58" y="355.52" width="9.9" height="12.47" style="fill:#ccc"></rect><rect x="544.48" y="370.91" width="8.04" height="12.47" style="fill:#ccc"></rect><rect x="554.58" y="338.66" width="9.9" height="13.93" style="fill:#ccc"></rect><rect x="544.48" y="386.31" width="8.04" height="15.99" style="fill:#ccc"></rect><rect x="554.58" y="386.31" width="9.9" height="15.99" style="fill:#ccc"></rect><rect x="532.74" y="386.31" width="9.69" height="15.99" style="fill:#ccc"></rect><rect x="532.74" y="370.91" width="9.69" height="12.47" style="fill:#ccc"></rect><rect x="532.74" y="355.52" width="9.69" height="12.47" style="fill:#ccc"></rect><rect x="532.74" y="338.66" width="9.69" height="13.93" style="fill:#ccc"></rect><rect x="451.65" y="331.92" width="117.17" height="75.42" style="fill:none;stroke:#263238;stroke-linecap:round;stroke-linejoin:round"></rect></g></svg>