<?xml version="1.0" standalone="no"?>
<svg xmlns:xlink="http://www.w3.org/1999/xlink" id="wave" style="transform:rotate(180deg); transition: 0.3s" viewBox="0 0 1440 280" version="1.1" xmlns="http://www.w3.org/2000/svg"><defs><linearGradient id="sw-gradient-0" x1="0" x2="0" y1="1" y2="0"><stop stop-color="rgba(167.824, 0, 180.293, 1)" offset="0%"/><stop stop-color="rgba(70.698, 0, 73.284, 1)" offset="100%"/></linearGradient></defs><path style="transform:translate(0, 0px); opacity:1" fill="url(#sw-gradient-0)" d="M0,56L80,74.7C160,93,320,131,480,126C640,121,800,75,960,46.7C1120,19,1280,9,1440,46.7C1600,84,1760,168,1920,168C2080,168,2240,84,2400,42C2560,0,2720,0,2880,0C3040,0,3200,0,3360,0C3520,0,3680,0,3840,23.3C4000,47,4160,93,4320,98C4480,103,4640,65,4800,74.7C4960,84,5120,140,5280,163.3C5440,187,5600,177,5760,168C5920,159,6080,149,6240,149.3C6400,149,6560,159,6720,163.3C6880,168,7040,168,7200,144.7C7360,121,7520,75,7680,70C7840,65,8000,103,8160,98C8320,93,8480,47,8640,28C8800,9,8960,19,9120,60.7C9280,103,9440,177,9600,172.7C9760,168,9920,84,10080,65.3C10240,47,10400,93,10560,121.3C10720,149,10880,159,11040,177.3C11200,196,11360,224,11440,238L11520,252L11520,280L11440,280C11360,280,11200,280,11040,280C10880,280,10720,280,10560,280C10400,280,10240,280,10080,280C9920,280,9760,280,9600,280C9440,280,9280,280,9120,280C8960,280,8800,280,8640,280C8480,280,8320,280,8160,280C8000,280,7840,280,7680,280C7520,280,7360,280,7200,280C7040,280,6880,280,6720,280C6560,280,6400,280,6240,280C6080,280,5920,280,5760,280C5600,280,5440,280,5280,280C5120,280,4960,280,4800,280C4640,280,4480,280,4320,280C4160,280,4000,280,3840,280C3680,280,3520,280,3360,280C3200,280,3040,280,2880,280C2720,280,2560,280,2400,280C2240,280,2080,280,1920,280C1760,280,1600,280,1440,280C1280,280,1120,280,960,280C800,280,640,280,480,280C320,280,160,280,80,280L0,280Z"/><defs><linearGradient id="sw-gradient-1" x1="0" x2="0" y1="1" y2="0"><stop stop-color="rgba(132.48, 0, 96.766, 1)" offset="0%"/><stop stop-color="rgba(175.739, 31.316, 146.59, 1)" offset="100%"/></linearGradient></defs><path style="transform:translate(0, 50px); opacity:0.9" fill="url(#sw-gradient-1)" d="M0,196L80,200.7C160,205,320,215,480,186.7C640,159,800,93,960,74.7C1120,56,1280,84,1440,79.3C1600,75,1760,37,1920,46.7C2080,56,2240,112,2400,144.7C2560,177,2720,187,2880,200.7C3040,215,3200,233,3360,224C3520,215,3680,177,3840,140C4000,103,4160,65,4320,60.7C4480,56,4640,84,4800,116.7C4960,149,5120,187,5280,182C5440,177,5600,131,5760,98C5920,65,6080,47,6240,60.7C6400,75,6560,121,6720,116.7C6880,112,7040,56,7200,56C7360,56,7520,112,7680,144.7C7840,177,8000,187,8160,196C8320,205,8480,215,8640,224C8800,233,8960,243,9120,214.7C9280,187,9440,121,9600,107.3C9760,93,9920,131,10080,149.3C10240,168,10400,168,10560,177.3C10720,187,10880,205,11040,205.3C11200,205,11360,187,11440,177.3L11520,168L11520,280L11440,280C11360,280,11200,280,11040,280C10880,280,10720,280,10560,280C10400,280,10240,280,10080,280C9920,280,9760,280,9600,280C9440,280,9280,280,9120,280C8960,280,8800,280,8640,280C8480,280,8320,280,8160,280C8000,280,7840,280,7680,280C7520,280,7360,280,7200,280C7040,280,6880,280,6720,280C6560,280,6400,280,6240,280C6080,280,5920,280,5760,280C5600,280,5440,280,5280,280C5120,280,4960,280,4800,280C4640,280,4480,280,4320,280C4160,280,4000,280,3840,280C3680,280,3520,280,3360,280C3200,280,3040,280,2880,280C2720,280,2560,280,2400,280C2240,280,2080,280,1920,280C1760,280,1600,280,1440,280C1280,280,1120,280,960,280C800,280,640,280,480,280C320,280,160,280,80,280L0,280Z"/></svg>