<svg xmlns="http://www.w3.org/2000/svg" width="512" height="512" fill-rule="evenodd" clip-rule="evenodd" image-rendering="optimizeQuality" shape-rendering="geometricPrecision" text-rendering="geometricPrecision" viewBox="0 0 512 512"><defs><linearGradient id="e" x1="-3807.09" x2="-3400.73" y1="1908.92" y2="2216.48" gradientUnits="userSpaceOnUse"><stop offset="0" stop-color="#1e1b1e"/><stop offset="1" stop-color="#474747"/></linearGradient><linearGradient id="c" x1="-4589.57" x2="-4183.21" y1="1994.12" y2="2301.68" gradientUnits="userSpaceOnUse"><stop offset="0" stop-color="#67c4ce"/><stop offset="1" stop-color="#e62a58"/></linearGradient><linearGradient id="a" x1="67.83" x2="474.19" y1="82.42" y2="389.98" gradientUnits="userSpaceOnUse"><stop offset="0" stop-color="#904a97"/><stop offset="1" stop-color="#f7b648"/></linearGradient><linearGradient id="b" x1="-3841.74" x2="-3435.39" y1="762.35" y2="454.79" gradientUnits="userSpaceOnUse"><stop offset="0" stop-color="#c8c217"/><stop offset="1" stop-color="#f2ea1a"/></linearGradient><linearGradient id="d" x1="-3036.7" x2="-2630.34" y1="2256.95" y2="1949.39" gradientUnits="userSpaceOnUse"><stop offset="0" stop-color="#e01e5a"/><stop offset="1" stop-color="#dfa22f"/></linearGradient></defs><path fill="url(#a)" d="M256 0c141.39,0 256,114.61 256,256 0,141.39 -114.61,256 -256,256 -141.39,0 -256,-114.61 -256,-256 0,-141.39 114.61,-256 256,-256z"/><path fill="#fff" d="M256.01 305.42c-27.3,0 -49.43,-22.12 -49.43,-49.42 0,-27.3 22.13,-49.42 49.42,-49.42 27.3,0 49.43,22.12 49.43,49.42 0,27.29 -22.13,49.42 -49.43,49.42l0.01 0zm-61.14 -196.8c-54.97,2.51 -83.85,33.43 -86.24,86.25 -1.84,39.98 -1.84,82.28 0,122.27 2.39,52.81 31.27,83.74 86.24,86.24 39.99,1.83 82.28,1.83 122.27,0 52.82,-2.41 83.73,-31.25 86.25,-86.24 1.82,-40 1.81,-82.27 0,-122.27 -2.46,-53.84 -32.41,-83.8 -86.25,-86.25 -39.99,-1.83 -82.28,-1.83 -122.27,0zm121.05 26.69c39.94,1.82 58.97,20.83 60.78,60.77 1.8,39.16 1.79,80.68 0,119.84 -1.86,41.09 -21.87,59 -60.78,60.78 -39.17,1.78 -80.66,1.78 -119.83,0 -38.91,-1.78 -58.91,-19.69 -60.78,-60.78 -1.79,-39.16 -1.79,-80.68 0,-119.84 1.77,-38.91 19.69,-58.89 60.78,-60.77 39.17,-1.79 80.66,-1.8 119.83,0zm37.03 41.54c0,9.82 -7.97,17.79 -17.79,17.79 -9.84,0 -17.8,-7.96 -17.8,-17.79 0,-9.83 7.96,-17.79 17.8,-17.79 9.82,-0.01 17.79,7.96 17.79,17.79zm-96.94 3.01c-42.05,0 -76.15,34.09 -76.15,76.14 0,42.05 34.1,76.14 76.14,76.14 42.06,0 76.15,-34.09 76.15,-76.14 0,-42.05 -34.09,-76.14 -76.14,-76.14z"/><path fill="url(#b)" d="M-3653.57 884.37c-141.39,0 -256.01,-114.61 -256.01,-256 0,-141.39 114.62,-256 256.01,-256 141.38,0 256,114.61 256,256 0,141.39 -114.62,256 -256,256z"/><path fill="#fff" d="M-3797.12 697.57c24.7,-4.9 41.23,-20.65 53.7,-41.33 18.18,-30.16 -9.3,-21.72 -25.6,-35.9 -8.65,-7.52 -3.53,-18.35 6.67,-20.8 9.63,-2.33 28.96,11.61 27.36,-2.28 -1.53,-13.27 -1.49,-26.6 -0.87,-39.92 4.33,-92.63 153.65,-92.31 163.84,-5.8 1.77,15.04 1.06,30.11 -0.13,45.18 -1.27,16.21 16.46,-2.25 30.4,3.87 8.87,3.9 11.18,13.15 3.69,19.67 -10.7,9.31 -38.68,9.22 -30.48,26.54 11.82,24.98 29.19,43.96 57.29,50.55 16.29,3.8 5.67,16.35 -4.58,20.23 -13.45,5.11 -28.41,2.57 -30.58,17.34 -1.18,8.07 -3.61,9.21 -11.84,8.55 -19.8,-1.59 -32.36,-5.86 -50.27,8.61 -23.24,18.72 -50.88,23.72 -77.48,8.21 -32.62,-19.03 -25.49,-20.84 -64.27,-16.57 -4.89,0.54 -9.61,-0.86 -9.89,-5.91 -0.98,-18.02 -18.25,-14.73 -32.35,-20.63 -10.85,-4.53 -17.77,-17 -4.61,-19.61z"/><path fill="url(#c)" d="M-4401.4 1911.7c141.39,0 256.01,114.61 256.01,256 0,141.38 -114.62,256 -256.01,256 -141.38,0 -256,-114.62 -256,-256 0,-141.39 114.62,-256 256,-256z"/><path fill="#fff" d="M-4343.9 2017.71c0.02,4.58 1.36,70.82 70.88,74.95 0,19.11 0.02,32.96 0.02,51.19 -5.27,0.3 -45.77,-2.64 -70.98,-25.12l-0.07 99.64c0.95,69.15 -49.94,111.24 -116.46,96.7 -114.71,-34.31 -76.6,-204.45 38.58,-186.24 0,54.93 0.04,-0.02 0.04,54.93 -47.59,-7 -63.5,32.58 -50.86,60.92 11.51,25.8 58.88,31.4 75.41,-5 1.87,-7.13 2.81,-15.25 2.81,-24.37l0 -197.86 50.63 0.26z"/><path fill="url(#d)" d="M-2848.53 2378.97c-141.38,0 -256,-114.62 -256,-256 0,-141.39 114.62,-256 256,-256 141.39,0 256.01,114.61 256.01,256 0,141.38 -114.62,256 -256.01,256z"/><path fill="#fff" fill-rule="nonzero" d="M-2889.38 1970.04c-16.83,0 -30.58,13.75 -30.58,30.58 0,16.84 13.75,30.59 30.58,30.59 10.2,0 20.4,0 30.59,0l0 -30.59c0,-16.83 -13.55,-30.58 -30.59,-30.58zm-111.87 193.78c0,16.83 13.75,30.58 30.58,30.58 16.84,0 30.59,-13.75 30.59,-30.58l0 -30.59 -30.59 0c-17.03,0 -30.58,13.76 -30.58,30.59zm81.49 0l0 81.7c0,16.83 13.76,30.59 30.59,30.59 16.83,0 30.59,-13.76 30.59,-30.59l0 -81.7c0,-16.83 -13.76,-30.59 -30.59,-30.59 0,0 0,0 0,0 -17.04,0 -30.59,13.76 -30.59,30.59zm111.88 112.29c16.83,0 30.59,-13.76 30.59,-30.59 0,-16.83 -13.76,-30.59 -30.59,-30.59l-30.59 0 0 30.59c0,16.83 13.76,30.59 30.59,30.59zm81.5 -81.71c16.83,0 30.58,-13.75 30.58,-30.58 0,-16.83 -13.75,-30.59 -30.58,-30.59l-81.5 0c-16.83,0 -30.59,13.76 -30.59,30.59 0,16.83 13.76,30.58 30.59,30.58 27.17,0 54.33,0 81.5,0zm30.58 -112.28c0,-16.83 -13.75,-30.59 -30.58,-30.59 -16.84,0 -30.59,13.76 -30.59,30.59l0 30.59 30.59 0c16.83,0.2 30.58,-13.55 30.58,-30.59zm-81.49 0l0 -81.7c0,-16.84 -13.76,-30.59 -30.59,-30.59 -16.83,0 -30.59,13.75 -30.59,30.59l0 81.7c0,16.83 13.76,30.59 30.59,30.59 17.04,0.2 30.59,-13.55 30.59,-30.59zm-112.09 -30.59l-81.29 0c-16.83,0 -30.58,13.76 -30.58,30.59 0,16.83 13.75,30.59 30.58,30.59l81.5 0c16.83,0 30.59,-13.76 30.59,-30.59 -0.21,-16.83 -13.76,-30.59 -30.8,-30.59z"/><g><path fill="url(#e)" d="M-3618.92 1826.5c141.39,0 256.01,114.61 256.01,256 0,141.39 -114.62,256 -256.01,256 -141.38,0 -256,-114.61 -256,-256 0,-141.39 114.62,-256 256,-256z"/><path fill="#fff" d="M-3694.11 1985.89c53.36,0 96.61,43.25 96.61,96.61 0,53.36 -43.25,96.62 -96.61,96.62 -53.36,0 -96.62,-43.26 -96.62,-96.62 0,-53.36 43.26,-96.61 96.62,-96.61zm229.97 15.25c9.41,0 17.03,36.43 17.03,81.36 0,44.94 -7.62,81.36 -17.03,81.36 -9.4,0 -17.03,-36.42 -17.03,-81.36 0,-44.93 7.63,-81.36 17.03,-81.36zm-75.38 -7.63c27,0 48.89,39.85 48.89,88.99 0,49.15 -21.89,88.99 -48.89,88.99 -27,0 -48.89,-39.84 -48.89,-88.99 0,-49.14 21.89,-88.99 48.89,-88.99z"/></g></svg>